G04 EAGLE Gerber RS-274X export*
G75*
%MOMM*%
%FSLAX34Y34*%
%LPD*%
%IN*%
%IPPOS*%
%AMOC8*
5,1,8,0,0,1.08239X$1,22.5*%
G01*
%ADD10C,0.254000*%


D10*
X0Y0D02*
X1000000Y0D01*
X1000000Y800000D01*
X0Y800000D01*
X0Y0D01*
X289119Y220200D02*
X288561Y220263D01*
X288014Y220388D01*
X287484Y220573D01*
X286978Y220817D01*
X286502Y221116D01*
X286063Y221466D01*
X285666Y221863D01*
X285316Y222302D01*
X285017Y222778D01*
X284773Y223284D01*
X284588Y223814D01*
X284463Y224361D01*
X284400Y224919D01*
X284400Y225481D01*
X284463Y226039D01*
X284588Y226586D01*
X284773Y227116D01*
X285017Y227622D01*
X285316Y228098D01*
X285666Y228537D01*
X286063Y228934D01*
X286502Y229284D01*
X286978Y229583D01*
X287484Y229827D01*
X288014Y230012D01*
X288561Y230137D01*
X289119Y230200D01*
X289681Y230200D01*
X290239Y230137D01*
X290786Y230012D01*
X291316Y229827D01*
X291822Y229583D01*
X292298Y229284D01*
X292737Y228934D01*
X293134Y228537D01*
X293484Y228098D01*
X293783Y227622D01*
X294027Y227116D01*
X294212Y226586D01*
X294337Y226039D01*
X294400Y225481D01*
X294400Y224919D01*
X294337Y224361D01*
X294212Y223814D01*
X294027Y223284D01*
X293783Y222778D01*
X293484Y222302D01*
X293134Y221863D01*
X292737Y221466D01*
X292298Y221116D01*
X291822Y220817D01*
X291316Y220573D01*
X290786Y220388D01*
X290239Y220263D01*
X289681Y220200D01*
X289119Y220200D01*
X289119Y176200D02*
X288561Y176263D01*
X288014Y176388D01*
X287484Y176573D01*
X286978Y176817D01*
X286502Y177116D01*
X286063Y177466D01*
X285666Y177863D01*
X285316Y178302D01*
X285017Y178778D01*
X284773Y179284D01*
X284588Y179814D01*
X284463Y180361D01*
X284400Y180919D01*
X284400Y181481D01*
X284463Y182039D01*
X284588Y182586D01*
X284773Y183116D01*
X285017Y183622D01*
X285316Y184098D01*
X285666Y184537D01*
X286063Y184934D01*
X286502Y185284D01*
X286978Y185583D01*
X287484Y185827D01*
X288014Y186012D01*
X288561Y186137D01*
X289119Y186200D01*
X289681Y186200D01*
X290239Y186137D01*
X290786Y186012D01*
X291316Y185827D01*
X291822Y185583D01*
X292298Y185284D01*
X292737Y184934D01*
X293134Y184537D01*
X293484Y184098D01*
X293783Y183622D01*
X294027Y183116D01*
X294212Y182586D01*
X294337Y182039D01*
X294400Y181481D01*
X294400Y180919D01*
X294337Y180361D01*
X294212Y179814D01*
X294027Y179284D01*
X293783Y178778D01*
X293484Y178302D01*
X293134Y177863D01*
X292737Y177466D01*
X292298Y177116D01*
X291822Y176817D01*
X291316Y176573D01*
X290786Y176388D01*
X290239Y176263D01*
X289681Y176200D01*
X289119Y176200D01*
M02*
