G04 EAGLE Gerber RS-274X export*
G75*
%MOMM*%
%FSLAX34Y34*%
%LPD*%
%INSilkscreen Bottom*%
%IPPOS*%
%AMOC8*
5,1,8,0,0,1.08239X$1,22.5*%
G01*
%ADD10C,0.508000*%
%ADD11C,0.304800*%


D10*
X879856Y328676D02*
X879856Y269240D01*
X886460Y269240D02*
X873252Y269240D01*
X873252Y328676D02*
X886460Y328676D01*
X852627Y292354D02*
X836117Y285750D01*
X852628Y292353D02*
X852820Y292433D01*
X853011Y292518D01*
X853199Y292607D01*
X853386Y292700D01*
X853570Y292798D01*
X853751Y292901D01*
X853930Y293008D01*
X854106Y293119D01*
X854280Y293235D01*
X854450Y293354D01*
X854618Y293478D01*
X854783Y293606D01*
X854944Y293738D01*
X855102Y293874D01*
X855257Y294013D01*
X855409Y294156D01*
X855556Y294303D01*
X855701Y294454D01*
X855841Y294608D01*
X855978Y294765D01*
X856111Y294926D01*
X856240Y295089D01*
X856365Y295256D01*
X856485Y295426D01*
X856602Y295599D01*
X856714Y295775D01*
X856822Y295953D01*
X856926Y296134D01*
X857025Y296317D01*
X857120Y296502D01*
X857211Y296690D01*
X857296Y296880D01*
X857377Y297072D01*
X857453Y297266D01*
X857525Y297462D01*
X857592Y297660D01*
X857654Y297859D01*
X857711Y298059D01*
X857763Y298261D01*
X857810Y298464D01*
X857852Y298668D01*
X857890Y298873D01*
X857922Y299079D01*
X857949Y299286D01*
X857972Y299493D01*
X857989Y299701D01*
X858001Y299909D01*
X858008Y300117D01*
X858010Y300326D01*
X858007Y300534D01*
X857999Y300742D01*
X857985Y300950D01*
X857967Y301158D01*
X857944Y301365D01*
X857916Y301572D01*
X857882Y301777D01*
X857844Y301982D01*
X857800Y302186D01*
X857752Y302389D01*
X857699Y302590D01*
X857641Y302790D01*
X857578Y302989D01*
X857510Y303186D01*
X857437Y303382D01*
X857360Y303575D01*
X857278Y303767D01*
X857191Y303956D01*
X857100Y304144D01*
X857004Y304329D01*
X856904Y304512D01*
X856799Y304692D01*
X856690Y304870D01*
X856577Y305045D01*
X856460Y305217D01*
X856338Y305386D01*
X856212Y305552D01*
X856082Y305715D01*
X855949Y305875D01*
X855811Y306032D01*
X855670Y306185D01*
X855525Y306335D01*
X855376Y306481D01*
X855224Y306623D01*
X855068Y306762D01*
X854909Y306897D01*
X854747Y307028D01*
X854582Y307155D01*
X854414Y307278D01*
X854242Y307397D01*
X854068Y307511D01*
X853892Y307622D01*
X853712Y307728D01*
X853530Y307829D01*
X853346Y307926D01*
X853159Y308019D01*
X852970Y308107D01*
X852779Y308190D01*
X852586Y308269D01*
X852391Y308343D01*
X852195Y308413D01*
X851996Y308477D01*
X851797Y308537D01*
X851595Y308591D01*
X851393Y308641D01*
X851189Y308686D01*
X850985Y308726D01*
X850779Y308761D01*
X850573Y308791D01*
X850366Y308816D01*
X850159Y308835D01*
X849951Y308850D01*
X849743Y308860D01*
X849534Y308865D01*
X849326Y308864D01*
X849325Y308864D02*
X848424Y308840D01*
X847524Y308795D01*
X846624Y308728D01*
X845727Y308639D01*
X844832Y308529D01*
X843940Y308398D01*
X843052Y308245D01*
X842167Y308070D01*
X841287Y307875D01*
X840412Y307658D01*
X839542Y307420D01*
X838678Y307162D01*
X837821Y306883D01*
X836971Y306583D01*
X836128Y306263D01*
X835293Y305922D01*
X834466Y305562D01*
X836117Y285751D02*
X835925Y285671D01*
X835734Y285586D01*
X835546Y285497D01*
X835359Y285404D01*
X835175Y285306D01*
X834994Y285203D01*
X834815Y285096D01*
X834639Y284985D01*
X834465Y284869D01*
X834295Y284750D01*
X834127Y284626D01*
X833962Y284498D01*
X833801Y284366D01*
X833643Y284230D01*
X833488Y284091D01*
X833336Y283948D01*
X833189Y283801D01*
X833044Y283650D01*
X832904Y283496D01*
X832767Y283339D01*
X832634Y283178D01*
X832505Y283015D01*
X832380Y282848D01*
X832260Y282678D01*
X832143Y282505D01*
X832031Y282329D01*
X831923Y282151D01*
X831819Y281970D01*
X831720Y281787D01*
X831625Y281602D01*
X831534Y281414D01*
X831449Y281224D01*
X831368Y281032D01*
X831292Y280838D01*
X831220Y280642D01*
X831153Y280444D01*
X831091Y280245D01*
X831034Y280045D01*
X830982Y279843D01*
X830935Y279640D01*
X830893Y279436D01*
X830855Y279231D01*
X830823Y279025D01*
X830796Y278818D01*
X830773Y278611D01*
X830756Y278403D01*
X830744Y278195D01*
X830737Y277987D01*
X830735Y277778D01*
X830738Y277570D01*
X830746Y277362D01*
X830760Y277154D01*
X830778Y276946D01*
X830801Y276739D01*
X830829Y276532D01*
X830863Y276327D01*
X830901Y276122D01*
X830945Y275918D01*
X830993Y275715D01*
X831046Y275514D01*
X831104Y275314D01*
X831167Y275115D01*
X831235Y274918D01*
X831308Y274722D01*
X831385Y274529D01*
X831467Y274337D01*
X831554Y274148D01*
X831645Y273960D01*
X831741Y273775D01*
X831841Y273592D01*
X831946Y273412D01*
X832055Y273234D01*
X832168Y273059D01*
X832285Y272887D01*
X832407Y272718D01*
X832533Y272552D01*
X832663Y272389D01*
X832796Y272229D01*
X832934Y272072D01*
X833075Y271919D01*
X833220Y271769D01*
X833369Y271623D01*
X833521Y271481D01*
X833677Y271342D01*
X833836Y271207D01*
X833998Y271076D01*
X834163Y270949D01*
X834331Y270826D01*
X834503Y270707D01*
X834677Y270593D01*
X834853Y270482D01*
X835033Y270376D01*
X835215Y270275D01*
X835399Y270178D01*
X835586Y270085D01*
X835775Y269997D01*
X835966Y269914D01*
X836159Y269835D01*
X836354Y269761D01*
X836550Y269691D01*
X836749Y269627D01*
X836948Y269567D01*
X837150Y269513D01*
X837352Y269463D01*
X837556Y269418D01*
X837760Y269378D01*
X837966Y269343D01*
X838172Y269313D01*
X838379Y269288D01*
X838586Y269269D01*
X838794Y269254D01*
X839002Y269244D01*
X839211Y269239D01*
X839419Y269240D01*
X839419Y269241D02*
X840743Y269275D01*
X842066Y269341D01*
X843387Y269438D01*
X844705Y269567D01*
X846020Y269726D01*
X847330Y269917D01*
X848636Y270138D01*
X849936Y270391D01*
X851230Y270674D01*
X852517Y270987D01*
X853796Y271331D01*
X855067Y271705D01*
X856328Y272109D01*
X857580Y272543D01*
X814184Y269240D02*
X814184Y308864D01*
X784466Y308864D01*
X784227Y308861D01*
X783987Y308852D01*
X783748Y308838D01*
X783510Y308818D01*
X783272Y308792D01*
X783035Y308760D01*
X782798Y308723D01*
X782563Y308679D01*
X782328Y308631D01*
X782095Y308576D01*
X781864Y308516D01*
X781633Y308450D01*
X781405Y308379D01*
X781178Y308302D01*
X780953Y308220D01*
X780730Y308133D01*
X780510Y308040D01*
X780292Y307941D01*
X780076Y307838D01*
X779862Y307729D01*
X779652Y307616D01*
X779444Y307497D01*
X779239Y307373D01*
X779037Y307244D01*
X778839Y307110D01*
X778643Y306972D01*
X778451Y306829D01*
X778263Y306681D01*
X778078Y306529D01*
X777897Y306373D01*
X777720Y306212D01*
X777547Y306047D01*
X777377Y305877D01*
X777212Y305704D01*
X777051Y305527D01*
X776895Y305346D01*
X776743Y305161D01*
X776595Y304973D01*
X776452Y304781D01*
X776314Y304585D01*
X776180Y304387D01*
X776051Y304185D01*
X775927Y303980D01*
X775808Y303772D01*
X775695Y303562D01*
X775586Y303348D01*
X775483Y303132D01*
X775384Y302914D01*
X775291Y302694D01*
X775204Y302471D01*
X775122Y302246D01*
X775045Y302019D01*
X774974Y301791D01*
X774908Y301560D01*
X774848Y301329D01*
X774793Y301096D01*
X774745Y300861D01*
X774701Y300626D01*
X774664Y300389D01*
X774632Y300152D01*
X774606Y299914D01*
X774586Y299676D01*
X774572Y299437D01*
X774563Y299197D01*
X774560Y298958D01*
X774560Y269240D01*
X794372Y269240D02*
X794372Y308864D01*
X745980Y292354D02*
X731121Y292354D01*
X745980Y292354D02*
X746261Y292351D01*
X746543Y292340D01*
X746824Y292323D01*
X747104Y292299D01*
X747384Y292268D01*
X747663Y292231D01*
X747941Y292186D01*
X748217Y292135D01*
X748493Y292078D01*
X748767Y292013D01*
X749039Y291942D01*
X749310Y291864D01*
X749578Y291780D01*
X749844Y291689D01*
X750109Y291591D01*
X750370Y291488D01*
X750629Y291378D01*
X750885Y291261D01*
X751139Y291139D01*
X751389Y291010D01*
X751636Y290875D01*
X751880Y290735D01*
X752120Y290588D01*
X752357Y290436D01*
X752590Y290277D01*
X752818Y290114D01*
X753043Y289944D01*
X753264Y289770D01*
X753480Y289590D01*
X753692Y289404D01*
X753900Y289214D01*
X754102Y289019D01*
X754300Y288818D01*
X754493Y288613D01*
X754681Y288404D01*
X754863Y288190D01*
X755041Y287971D01*
X755213Y287748D01*
X755379Y287522D01*
X755540Y287291D01*
X755695Y287056D01*
X755845Y286818D01*
X755989Y286576D01*
X756126Y286330D01*
X756258Y286081D01*
X756384Y285829D01*
X756503Y285575D01*
X756616Y285317D01*
X756723Y285057D01*
X756824Y284794D01*
X756918Y284529D01*
X757006Y284261D01*
X757087Y283992D01*
X757161Y283720D01*
X757229Y283447D01*
X757290Y283172D01*
X757345Y282896D01*
X757393Y282619D01*
X757433Y282340D01*
X757468Y282061D01*
X757495Y281781D01*
X757516Y281500D01*
X757529Y281219D01*
X757536Y280938D01*
X757536Y280656D01*
X757529Y280375D01*
X757516Y280094D01*
X757495Y279813D01*
X757468Y279533D01*
X757433Y279254D01*
X757393Y278975D01*
X757345Y278698D01*
X757290Y278422D01*
X757229Y278147D01*
X757161Y277874D01*
X757087Y277602D01*
X757006Y277333D01*
X756918Y277065D01*
X756824Y276800D01*
X756723Y276537D01*
X756616Y276277D01*
X756503Y276019D01*
X756384Y275765D01*
X756258Y275513D01*
X756126Y275264D01*
X755989Y275019D01*
X755845Y274776D01*
X755695Y274538D01*
X755540Y274303D01*
X755379Y274072D01*
X755213Y273846D01*
X755041Y273623D01*
X754863Y273404D01*
X754681Y273190D01*
X754493Y272981D01*
X754300Y272776D01*
X754102Y272575D01*
X753900Y272380D01*
X753692Y272190D01*
X753480Y272004D01*
X753264Y271824D01*
X753043Y271650D01*
X752818Y271480D01*
X752590Y271317D01*
X752357Y271158D01*
X752120Y271006D01*
X751880Y270859D01*
X751636Y270719D01*
X751389Y270584D01*
X751139Y270455D01*
X750885Y270333D01*
X750629Y270216D01*
X750370Y270106D01*
X750109Y270003D01*
X749844Y269905D01*
X749578Y269814D01*
X749310Y269730D01*
X749039Y269652D01*
X748767Y269581D01*
X748493Y269516D01*
X748217Y269459D01*
X747941Y269408D01*
X747663Y269363D01*
X747384Y269326D01*
X747104Y269295D01*
X746824Y269271D01*
X746543Y269254D01*
X746261Y269243D01*
X745980Y269240D01*
X731121Y269240D01*
X731121Y298958D01*
X731124Y299197D01*
X731133Y299437D01*
X731147Y299676D01*
X731167Y299914D01*
X731193Y300152D01*
X731225Y300389D01*
X731262Y300626D01*
X731306Y300861D01*
X731354Y301096D01*
X731409Y301329D01*
X731469Y301560D01*
X731535Y301791D01*
X731606Y302019D01*
X731683Y302246D01*
X731765Y302471D01*
X731852Y302694D01*
X731945Y302914D01*
X732044Y303132D01*
X732147Y303348D01*
X732256Y303562D01*
X732369Y303772D01*
X732488Y303980D01*
X732612Y304185D01*
X732741Y304387D01*
X732875Y304585D01*
X733013Y304781D01*
X733156Y304973D01*
X733304Y305161D01*
X733456Y305346D01*
X733612Y305527D01*
X733773Y305704D01*
X733938Y305877D01*
X734108Y306047D01*
X734281Y306212D01*
X734458Y306373D01*
X734639Y306529D01*
X734824Y306681D01*
X735012Y306829D01*
X735204Y306972D01*
X735400Y307110D01*
X735598Y307244D01*
X735800Y307373D01*
X736005Y307497D01*
X736213Y307616D01*
X736423Y307729D01*
X736637Y307838D01*
X736853Y307941D01*
X737071Y308040D01*
X737291Y308133D01*
X737514Y308220D01*
X737739Y308302D01*
X737966Y308379D01*
X738194Y308450D01*
X738425Y308516D01*
X738656Y308576D01*
X738889Y308631D01*
X739124Y308679D01*
X739359Y308723D01*
X739596Y308760D01*
X739833Y308792D01*
X740071Y308818D01*
X740309Y308838D01*
X740548Y308852D01*
X740788Y308861D01*
X741027Y308864D01*
X754235Y308864D01*
X704126Y269240D02*
X687616Y269240D01*
X704126Y269240D02*
X704365Y269243D01*
X704605Y269252D01*
X704844Y269266D01*
X705082Y269286D01*
X705320Y269312D01*
X705557Y269344D01*
X705794Y269381D01*
X706029Y269425D01*
X706264Y269473D01*
X706497Y269528D01*
X706728Y269588D01*
X706959Y269654D01*
X707187Y269725D01*
X707414Y269802D01*
X707639Y269884D01*
X707862Y269971D01*
X708082Y270064D01*
X708300Y270163D01*
X708516Y270266D01*
X708730Y270375D01*
X708940Y270488D01*
X709148Y270607D01*
X709353Y270731D01*
X709555Y270860D01*
X709753Y270994D01*
X709949Y271132D01*
X710141Y271275D01*
X710329Y271423D01*
X710514Y271575D01*
X710695Y271731D01*
X710872Y271892D01*
X711045Y272057D01*
X711215Y272227D01*
X711380Y272400D01*
X711541Y272577D01*
X711697Y272758D01*
X711849Y272943D01*
X711997Y273131D01*
X712140Y273323D01*
X712278Y273519D01*
X712412Y273717D01*
X712541Y273919D01*
X712665Y274124D01*
X712784Y274332D01*
X712897Y274542D01*
X713006Y274756D01*
X713109Y274972D01*
X713208Y275190D01*
X713301Y275410D01*
X713388Y275633D01*
X713470Y275858D01*
X713547Y276085D01*
X713618Y276313D01*
X713684Y276544D01*
X713744Y276775D01*
X713799Y277008D01*
X713847Y277243D01*
X713891Y277478D01*
X713928Y277715D01*
X713960Y277952D01*
X713986Y278190D01*
X714006Y278428D01*
X714020Y278667D01*
X714029Y278907D01*
X714032Y279146D01*
X714032Y295656D01*
X714028Y295978D01*
X714016Y296299D01*
X713997Y296620D01*
X713969Y296941D01*
X713934Y297260D01*
X713891Y297579D01*
X713841Y297897D01*
X713782Y298213D01*
X713716Y298528D01*
X713642Y298841D01*
X713561Y299152D01*
X713472Y299461D01*
X713376Y299768D01*
X713272Y300073D01*
X713160Y300374D01*
X713042Y300673D01*
X712916Y300969D01*
X712783Y301262D01*
X712643Y301552D01*
X712496Y301838D01*
X712342Y302120D01*
X712181Y302399D01*
X712014Y302673D01*
X711839Y302944D01*
X711659Y303210D01*
X711472Y303471D01*
X711278Y303728D01*
X711078Y303981D01*
X710873Y304228D01*
X710661Y304470D01*
X710443Y304707D01*
X710220Y304938D01*
X709991Y305164D01*
X709757Y305385D01*
X709518Y305600D01*
X709273Y305808D01*
X709023Y306011D01*
X708768Y306208D01*
X708509Y306398D01*
X708245Y306582D01*
X707977Y306759D01*
X707705Y306930D01*
X707428Y307094D01*
X707148Y307252D01*
X706863Y307402D01*
X706575Y307546D01*
X706284Y307683D01*
X705990Y307812D01*
X705692Y307934D01*
X705392Y308049D01*
X705089Y308157D01*
X704783Y308257D01*
X704475Y308349D01*
X704165Y308435D01*
X703853Y308512D01*
X703539Y308582D01*
X703223Y308644D01*
X702906Y308699D01*
X702588Y308746D01*
X702269Y308785D01*
X701948Y308816D01*
X701628Y308840D01*
X701306Y308855D01*
X700985Y308863D01*
X700663Y308863D01*
X700342Y308855D01*
X700020Y308840D01*
X699700Y308816D01*
X699379Y308785D01*
X699060Y308746D01*
X698742Y308699D01*
X698425Y308644D01*
X698109Y308582D01*
X697795Y308512D01*
X697483Y308435D01*
X697173Y308349D01*
X696865Y308257D01*
X696559Y308157D01*
X696256Y308049D01*
X695956Y307934D01*
X695658Y307812D01*
X695364Y307683D01*
X695073Y307546D01*
X694785Y307402D01*
X694500Y307252D01*
X694220Y307094D01*
X693943Y306930D01*
X693671Y306759D01*
X693403Y306582D01*
X693139Y306398D01*
X692880Y306208D01*
X692625Y306011D01*
X692375Y305808D01*
X692130Y305600D01*
X691891Y305385D01*
X691657Y305164D01*
X691428Y304938D01*
X691205Y304707D01*
X690987Y304470D01*
X690775Y304228D01*
X690570Y303981D01*
X690370Y303728D01*
X690176Y303471D01*
X689989Y303210D01*
X689809Y302944D01*
X689634Y302673D01*
X689467Y302399D01*
X689306Y302120D01*
X689152Y301838D01*
X689005Y301552D01*
X688865Y301262D01*
X688732Y300969D01*
X688606Y300673D01*
X688488Y300374D01*
X688376Y300073D01*
X688272Y299768D01*
X688176Y299461D01*
X688087Y299152D01*
X688006Y298841D01*
X687932Y298528D01*
X687866Y298213D01*
X687807Y297897D01*
X687757Y297579D01*
X687714Y297260D01*
X687679Y296941D01*
X687651Y296620D01*
X687632Y296299D01*
X687620Y295978D01*
X687616Y295656D01*
X687616Y289052D01*
X714032Y289052D01*
X670332Y279146D02*
X670332Y328676D01*
X670332Y279146D02*
X670329Y278907D01*
X670320Y278667D01*
X670306Y278428D01*
X670286Y278190D01*
X670260Y277952D01*
X670228Y277715D01*
X670191Y277478D01*
X670147Y277243D01*
X670099Y277008D01*
X670044Y276775D01*
X669984Y276544D01*
X669918Y276313D01*
X669847Y276085D01*
X669770Y275858D01*
X669688Y275633D01*
X669601Y275410D01*
X669508Y275190D01*
X669409Y274972D01*
X669306Y274756D01*
X669197Y274542D01*
X669084Y274332D01*
X668965Y274124D01*
X668841Y273919D01*
X668712Y273717D01*
X668578Y273519D01*
X668440Y273323D01*
X668297Y273131D01*
X668149Y272943D01*
X667997Y272758D01*
X667841Y272577D01*
X667680Y272400D01*
X667515Y272227D01*
X667345Y272057D01*
X667172Y271892D01*
X666995Y271731D01*
X666814Y271575D01*
X666629Y271423D01*
X666441Y271275D01*
X666249Y271132D01*
X666053Y270994D01*
X665855Y270860D01*
X665653Y270731D01*
X665448Y270607D01*
X665240Y270488D01*
X665030Y270375D01*
X664816Y270266D01*
X664600Y270163D01*
X664382Y270064D01*
X664162Y269971D01*
X663939Y269884D01*
X663714Y269802D01*
X663487Y269725D01*
X663259Y269654D01*
X663028Y269588D01*
X662797Y269528D01*
X662564Y269473D01*
X662329Y269425D01*
X662094Y269381D01*
X661857Y269344D01*
X661620Y269312D01*
X661382Y269286D01*
X661144Y269266D01*
X660905Y269252D01*
X660665Y269243D01*
X660426Y269240D01*
X644881Y302260D02*
X628371Y302260D01*
X627969Y302255D01*
X627567Y302240D01*
X627166Y302216D01*
X626765Y302182D01*
X626366Y302138D01*
X625967Y302084D01*
X625570Y302021D01*
X625175Y301948D01*
X624781Y301865D01*
X624390Y301773D01*
X624001Y301671D01*
X623614Y301560D01*
X623231Y301439D01*
X622850Y301310D01*
X622473Y301171D01*
X622099Y301022D01*
X621729Y300865D01*
X621363Y300699D01*
X621001Y300524D01*
X620644Y300340D01*
X620291Y300148D01*
X619943Y299947D01*
X619599Y299737D01*
X619261Y299519D01*
X618929Y299293D01*
X618602Y299059D01*
X618281Y298818D01*
X617965Y298568D01*
X617656Y298311D01*
X617354Y298046D01*
X617057Y297774D01*
X616768Y297495D01*
X616485Y297209D01*
X616210Y296916D01*
X615942Y296617D01*
X615681Y296311D01*
X615427Y295999D01*
X615181Y295681D01*
X614944Y295356D01*
X614714Y295027D01*
X614492Y294691D01*
X614278Y294351D01*
X614073Y294005D01*
X613876Y293654D01*
X613688Y293299D01*
X613508Y292939D01*
X613338Y292575D01*
X613176Y292207D01*
X613023Y291835D01*
X612880Y291460D01*
X612745Y291081D01*
X612620Y290699D01*
X612504Y290314D01*
X612398Y289926D01*
X612301Y289536D01*
X612213Y289143D01*
X612136Y288749D01*
X612067Y288353D01*
X612009Y287955D01*
X611960Y287556D01*
X611921Y287156D01*
X611892Y286755D01*
X611872Y286353D01*
X611862Y285951D01*
X611862Y285549D01*
X611872Y285147D01*
X611892Y284745D01*
X611921Y284344D01*
X611960Y283944D01*
X612009Y283545D01*
X612067Y283147D01*
X612136Y282751D01*
X612213Y282357D01*
X612301Y281964D01*
X612398Y281574D01*
X612504Y281186D01*
X612620Y280801D01*
X612745Y280419D01*
X612880Y280040D01*
X613023Y279665D01*
X613176Y279293D01*
X613338Y278925D01*
X613508Y278561D01*
X613688Y278201D01*
X613876Y277846D01*
X614073Y277495D01*
X614278Y277149D01*
X614492Y276809D01*
X614714Y276473D01*
X614944Y276144D01*
X615181Y275819D01*
X615427Y275501D01*
X615681Y275189D01*
X615942Y274883D01*
X616210Y274584D01*
X616485Y274291D01*
X616768Y274005D01*
X617057Y273726D01*
X617354Y273454D01*
X617656Y273189D01*
X617965Y272932D01*
X618281Y272682D01*
X618602Y272441D01*
X618929Y272207D01*
X619261Y271981D01*
X619599Y271763D01*
X619943Y271553D01*
X620291Y271352D01*
X620644Y271160D01*
X621001Y270976D01*
X621363Y270801D01*
X621729Y270635D01*
X622099Y270478D01*
X622473Y270329D01*
X622850Y270190D01*
X623231Y270061D01*
X623614Y269940D01*
X624001Y269829D01*
X624390Y269727D01*
X624781Y269635D01*
X625175Y269552D01*
X625570Y269479D01*
X625967Y269416D01*
X626366Y269362D01*
X626765Y269318D01*
X627166Y269284D01*
X627567Y269260D01*
X627969Y269245D01*
X628371Y269240D01*
X644881Y269240D01*
X644881Y328676D01*
X628371Y328676D01*
X628049Y328672D01*
X627728Y328660D01*
X627407Y328641D01*
X627086Y328613D01*
X626767Y328578D01*
X626448Y328535D01*
X626130Y328485D01*
X625814Y328426D01*
X625499Y328360D01*
X625186Y328286D01*
X624875Y328205D01*
X624566Y328116D01*
X624259Y328020D01*
X623954Y327916D01*
X623653Y327804D01*
X623354Y327686D01*
X623058Y327560D01*
X622765Y327427D01*
X622475Y327287D01*
X622189Y327140D01*
X621907Y326986D01*
X621628Y326825D01*
X621354Y326658D01*
X621083Y326483D01*
X620817Y326303D01*
X620556Y326116D01*
X620299Y325922D01*
X620046Y325722D01*
X619799Y325517D01*
X619557Y325305D01*
X619320Y325087D01*
X619089Y324864D01*
X618863Y324635D01*
X618642Y324401D01*
X618427Y324162D01*
X618219Y323917D01*
X618016Y323667D01*
X617819Y323412D01*
X617629Y323153D01*
X617445Y322889D01*
X617268Y322621D01*
X617097Y322349D01*
X616933Y322072D01*
X616775Y321792D01*
X616625Y321507D01*
X616481Y321219D01*
X616344Y320928D01*
X616215Y320634D01*
X616093Y320336D01*
X615978Y320036D01*
X615870Y319733D01*
X615770Y319427D01*
X615678Y319119D01*
X615592Y318809D01*
X615515Y318497D01*
X615445Y318183D01*
X615383Y317867D01*
X615328Y317550D01*
X615281Y317232D01*
X615242Y316913D01*
X615211Y316592D01*
X615187Y316272D01*
X615172Y315950D01*
X615164Y315629D01*
X615164Y315307D01*
X615172Y314986D01*
X615187Y314664D01*
X615211Y314344D01*
X615242Y314023D01*
X615281Y313704D01*
X615328Y313386D01*
X615383Y313069D01*
X615445Y312753D01*
X615515Y312439D01*
X615592Y312127D01*
X615678Y311817D01*
X615770Y311509D01*
X615870Y311203D01*
X615978Y310900D01*
X616093Y310600D01*
X616215Y310302D01*
X616344Y310008D01*
X616481Y309717D01*
X616625Y309429D01*
X616775Y309144D01*
X616933Y308864D01*
X617097Y308587D01*
X617268Y308315D01*
X617445Y308047D01*
X617629Y307783D01*
X617819Y307524D01*
X618016Y307269D01*
X618219Y307019D01*
X618427Y306774D01*
X618642Y306535D01*
X618863Y306301D01*
X619089Y306072D01*
X619320Y305849D01*
X619557Y305631D01*
X619799Y305419D01*
X620046Y305214D01*
X620299Y305014D01*
X620556Y304820D01*
X620817Y304633D01*
X621083Y304453D01*
X621354Y304278D01*
X621628Y304111D01*
X621907Y303950D01*
X622189Y303796D01*
X622475Y303649D01*
X622765Y303509D01*
X623058Y303376D01*
X623354Y303250D01*
X623653Y303132D01*
X623954Y303020D01*
X624259Y302916D01*
X624566Y302820D01*
X624875Y302731D01*
X625186Y302650D01*
X625499Y302576D01*
X625814Y302510D01*
X626130Y302451D01*
X626448Y302401D01*
X626767Y302358D01*
X627086Y302323D01*
X627407Y302295D01*
X627728Y302276D01*
X628049Y302264D01*
X628371Y302260D01*
X597903Y295656D02*
X597903Y282448D01*
X597903Y295656D02*
X597899Y295978D01*
X597887Y296299D01*
X597868Y296620D01*
X597840Y296941D01*
X597805Y297260D01*
X597762Y297579D01*
X597712Y297897D01*
X597653Y298213D01*
X597587Y298528D01*
X597513Y298841D01*
X597432Y299152D01*
X597343Y299461D01*
X597247Y299768D01*
X597143Y300073D01*
X597031Y300374D01*
X596913Y300673D01*
X596787Y300969D01*
X596654Y301262D01*
X596514Y301552D01*
X596367Y301838D01*
X596213Y302120D01*
X596052Y302399D01*
X595885Y302673D01*
X595710Y302944D01*
X595530Y303210D01*
X595343Y303471D01*
X595149Y303728D01*
X594949Y303981D01*
X594744Y304228D01*
X594532Y304470D01*
X594314Y304707D01*
X594091Y304938D01*
X593862Y305164D01*
X593628Y305385D01*
X593389Y305600D01*
X593144Y305808D01*
X592894Y306011D01*
X592639Y306208D01*
X592380Y306398D01*
X592116Y306582D01*
X591848Y306759D01*
X591576Y306930D01*
X591299Y307094D01*
X591019Y307252D01*
X590734Y307402D01*
X590446Y307546D01*
X590155Y307683D01*
X589861Y307812D01*
X589563Y307934D01*
X589263Y308049D01*
X588960Y308157D01*
X588654Y308257D01*
X588346Y308349D01*
X588036Y308435D01*
X587724Y308512D01*
X587410Y308582D01*
X587094Y308644D01*
X586777Y308699D01*
X586459Y308746D01*
X586140Y308785D01*
X585819Y308816D01*
X585499Y308840D01*
X585177Y308855D01*
X584856Y308863D01*
X584534Y308863D01*
X584213Y308855D01*
X583891Y308840D01*
X583571Y308816D01*
X583250Y308785D01*
X582931Y308746D01*
X582613Y308699D01*
X582296Y308644D01*
X581980Y308582D01*
X581666Y308512D01*
X581354Y308435D01*
X581044Y308349D01*
X580736Y308257D01*
X580430Y308157D01*
X580127Y308049D01*
X579827Y307934D01*
X579529Y307812D01*
X579235Y307683D01*
X578944Y307546D01*
X578656Y307402D01*
X578371Y307252D01*
X578091Y307094D01*
X577814Y306930D01*
X577542Y306759D01*
X577274Y306582D01*
X577010Y306398D01*
X576751Y306208D01*
X576496Y306011D01*
X576246Y305808D01*
X576001Y305600D01*
X575762Y305385D01*
X575528Y305164D01*
X575299Y304938D01*
X575076Y304707D01*
X574858Y304470D01*
X574646Y304228D01*
X574441Y303981D01*
X574241Y303728D01*
X574047Y303471D01*
X573860Y303210D01*
X573680Y302944D01*
X573505Y302673D01*
X573338Y302399D01*
X573177Y302120D01*
X573023Y301838D01*
X572876Y301552D01*
X572736Y301262D01*
X572603Y300969D01*
X572477Y300673D01*
X572359Y300374D01*
X572247Y300073D01*
X572143Y299768D01*
X572047Y299461D01*
X571958Y299152D01*
X571877Y298841D01*
X571803Y298528D01*
X571737Y298213D01*
X571678Y297897D01*
X571628Y297579D01*
X571585Y297260D01*
X571550Y296941D01*
X571522Y296620D01*
X571503Y296299D01*
X571491Y295978D01*
X571487Y295656D01*
X571487Y282448D01*
X571491Y282126D01*
X571503Y281805D01*
X571522Y281484D01*
X571550Y281163D01*
X571585Y280844D01*
X571628Y280525D01*
X571678Y280207D01*
X571737Y279891D01*
X571803Y279576D01*
X571877Y279263D01*
X571958Y278952D01*
X572047Y278643D01*
X572143Y278336D01*
X572247Y278031D01*
X572359Y277730D01*
X572477Y277431D01*
X572603Y277135D01*
X572736Y276842D01*
X572876Y276552D01*
X573023Y276266D01*
X573177Y275984D01*
X573338Y275705D01*
X573505Y275431D01*
X573680Y275160D01*
X573860Y274894D01*
X574047Y274633D01*
X574241Y274376D01*
X574441Y274123D01*
X574646Y273876D01*
X574858Y273634D01*
X575076Y273397D01*
X575299Y273166D01*
X575528Y272940D01*
X575762Y272719D01*
X576001Y272504D01*
X576246Y272296D01*
X576496Y272093D01*
X576751Y271896D01*
X577010Y271706D01*
X577274Y271522D01*
X577542Y271345D01*
X577814Y271174D01*
X578091Y271010D01*
X578371Y270852D01*
X578656Y270702D01*
X578944Y270558D01*
X579235Y270421D01*
X579529Y270292D01*
X579827Y270170D01*
X580127Y270055D01*
X580430Y269947D01*
X580736Y269847D01*
X581044Y269755D01*
X581354Y269669D01*
X581666Y269592D01*
X581980Y269522D01*
X582296Y269460D01*
X582613Y269405D01*
X582931Y269358D01*
X583250Y269319D01*
X583571Y269288D01*
X583891Y269264D01*
X584213Y269249D01*
X584534Y269241D01*
X584856Y269241D01*
X585177Y269249D01*
X585499Y269264D01*
X585819Y269288D01*
X586140Y269319D01*
X586459Y269358D01*
X586777Y269405D01*
X587094Y269460D01*
X587410Y269522D01*
X587724Y269592D01*
X588036Y269669D01*
X588346Y269755D01*
X588654Y269847D01*
X588960Y269947D01*
X589263Y270055D01*
X589563Y270170D01*
X589861Y270292D01*
X590155Y270421D01*
X590446Y270558D01*
X590734Y270702D01*
X591019Y270852D01*
X591299Y271010D01*
X591576Y271174D01*
X591848Y271345D01*
X592116Y271522D01*
X592380Y271706D01*
X592639Y271896D01*
X592894Y272093D01*
X593144Y272296D01*
X593389Y272504D01*
X593628Y272719D01*
X593862Y272940D01*
X594091Y273166D01*
X594314Y273397D01*
X594532Y273634D01*
X594744Y273876D01*
X594949Y274123D01*
X595149Y274376D01*
X595343Y274633D01*
X595530Y274894D01*
X595710Y275160D01*
X595885Y275431D01*
X596052Y275705D01*
X596213Y275984D01*
X596367Y276266D01*
X596514Y276552D01*
X596654Y276842D01*
X596787Y277135D01*
X596913Y277431D01*
X597031Y277730D01*
X597143Y278031D01*
X597247Y278336D01*
X597343Y278643D01*
X597432Y278952D01*
X597513Y279263D01*
X597587Y279576D01*
X597653Y279891D01*
X597712Y280207D01*
X597762Y280525D01*
X597805Y280844D01*
X597840Y281163D01*
X597868Y281484D01*
X597887Y281805D01*
X597899Y282126D01*
X597903Y282448D01*
X544368Y292354D02*
X529509Y292354D01*
X544368Y292354D02*
X544649Y292351D01*
X544931Y292340D01*
X545212Y292323D01*
X545492Y292299D01*
X545772Y292268D01*
X546051Y292231D01*
X546329Y292186D01*
X546605Y292135D01*
X546881Y292078D01*
X547155Y292013D01*
X547427Y291942D01*
X547698Y291864D01*
X547966Y291780D01*
X548232Y291689D01*
X548497Y291591D01*
X548758Y291488D01*
X549017Y291378D01*
X549273Y291261D01*
X549527Y291139D01*
X549777Y291010D01*
X550024Y290875D01*
X550268Y290735D01*
X550508Y290588D01*
X550745Y290436D01*
X550978Y290277D01*
X551206Y290114D01*
X551431Y289944D01*
X551652Y289770D01*
X551868Y289590D01*
X552080Y289404D01*
X552288Y289214D01*
X552490Y289019D01*
X552688Y288818D01*
X552881Y288613D01*
X553069Y288404D01*
X553251Y288190D01*
X553429Y287971D01*
X553601Y287748D01*
X553767Y287522D01*
X553928Y287291D01*
X554083Y287056D01*
X554233Y286818D01*
X554377Y286576D01*
X554514Y286330D01*
X554646Y286081D01*
X554772Y285829D01*
X554891Y285575D01*
X555004Y285317D01*
X555111Y285057D01*
X555212Y284794D01*
X555306Y284529D01*
X555394Y284261D01*
X555475Y283992D01*
X555549Y283720D01*
X555617Y283447D01*
X555678Y283172D01*
X555733Y282896D01*
X555781Y282619D01*
X555821Y282340D01*
X555856Y282061D01*
X555883Y281781D01*
X555904Y281500D01*
X555917Y281219D01*
X555924Y280938D01*
X555924Y280656D01*
X555917Y280375D01*
X555904Y280094D01*
X555883Y279813D01*
X555856Y279533D01*
X555821Y279254D01*
X555781Y278975D01*
X555733Y278698D01*
X555678Y278422D01*
X555617Y278147D01*
X555549Y277874D01*
X555475Y277602D01*
X555394Y277333D01*
X555306Y277065D01*
X555212Y276800D01*
X555111Y276537D01*
X555004Y276277D01*
X554891Y276019D01*
X554772Y275765D01*
X554646Y275513D01*
X554514Y275264D01*
X554377Y275019D01*
X554233Y274776D01*
X554083Y274538D01*
X553928Y274303D01*
X553767Y274072D01*
X553601Y273846D01*
X553429Y273623D01*
X553251Y273404D01*
X553069Y273190D01*
X552881Y272981D01*
X552688Y272776D01*
X552490Y272575D01*
X552288Y272380D01*
X552080Y272190D01*
X551868Y272004D01*
X551652Y271824D01*
X551431Y271650D01*
X551206Y271480D01*
X550978Y271317D01*
X550745Y271158D01*
X550508Y271006D01*
X550268Y270859D01*
X550024Y270719D01*
X549777Y270584D01*
X549527Y270455D01*
X549273Y270333D01*
X549017Y270216D01*
X548758Y270106D01*
X548497Y270003D01*
X548232Y269905D01*
X547966Y269814D01*
X547698Y269730D01*
X547427Y269652D01*
X547155Y269581D01*
X546881Y269516D01*
X546605Y269459D01*
X546329Y269408D01*
X546051Y269363D01*
X545772Y269326D01*
X545492Y269295D01*
X545212Y269271D01*
X544931Y269254D01*
X544649Y269243D01*
X544368Y269240D01*
X529509Y269240D01*
X529509Y298958D01*
X529512Y299197D01*
X529521Y299437D01*
X529535Y299676D01*
X529555Y299914D01*
X529581Y300152D01*
X529613Y300389D01*
X529650Y300626D01*
X529694Y300861D01*
X529742Y301096D01*
X529797Y301329D01*
X529857Y301560D01*
X529923Y301791D01*
X529994Y302019D01*
X530071Y302246D01*
X530153Y302471D01*
X530240Y302694D01*
X530333Y302914D01*
X530432Y303132D01*
X530535Y303348D01*
X530644Y303562D01*
X530757Y303772D01*
X530876Y303980D01*
X531000Y304185D01*
X531129Y304387D01*
X531263Y304585D01*
X531401Y304781D01*
X531544Y304973D01*
X531692Y305161D01*
X531844Y305346D01*
X532000Y305527D01*
X532161Y305704D01*
X532326Y305877D01*
X532496Y306047D01*
X532669Y306212D01*
X532846Y306373D01*
X533027Y306529D01*
X533212Y306681D01*
X533400Y306829D01*
X533592Y306972D01*
X533788Y307110D01*
X533986Y307244D01*
X534188Y307373D01*
X534393Y307497D01*
X534601Y307616D01*
X534811Y307729D01*
X535025Y307838D01*
X535241Y307941D01*
X535459Y308040D01*
X535679Y308133D01*
X535902Y308220D01*
X536127Y308302D01*
X536354Y308379D01*
X536582Y308450D01*
X536813Y308516D01*
X537044Y308576D01*
X537277Y308631D01*
X537512Y308679D01*
X537747Y308723D01*
X537984Y308760D01*
X538221Y308792D01*
X538459Y308818D01*
X538697Y308838D01*
X538936Y308852D01*
X539176Y308861D01*
X539415Y308864D01*
X552623Y308864D01*
X510868Y308864D02*
X510868Y269240D01*
X510868Y308864D02*
X491056Y308864D01*
X491056Y302260D01*
X452089Y328676D02*
X452089Y269240D01*
X468599Y269240D01*
X468838Y269243D01*
X469078Y269252D01*
X469317Y269266D01*
X469555Y269286D01*
X469793Y269312D01*
X470030Y269344D01*
X470267Y269381D01*
X470502Y269425D01*
X470737Y269473D01*
X470970Y269528D01*
X471201Y269588D01*
X471432Y269654D01*
X471660Y269725D01*
X471887Y269802D01*
X472112Y269884D01*
X472335Y269971D01*
X472555Y270064D01*
X472773Y270163D01*
X472989Y270266D01*
X473203Y270375D01*
X473413Y270488D01*
X473621Y270607D01*
X473826Y270731D01*
X474028Y270860D01*
X474226Y270994D01*
X474422Y271132D01*
X474614Y271275D01*
X474802Y271423D01*
X474987Y271575D01*
X475168Y271731D01*
X475345Y271892D01*
X475518Y272057D01*
X475688Y272227D01*
X475853Y272400D01*
X476014Y272577D01*
X476170Y272758D01*
X476322Y272943D01*
X476470Y273131D01*
X476613Y273323D01*
X476751Y273519D01*
X476885Y273717D01*
X477014Y273919D01*
X477138Y274124D01*
X477257Y274332D01*
X477370Y274542D01*
X477479Y274756D01*
X477582Y274972D01*
X477681Y275190D01*
X477774Y275410D01*
X477861Y275633D01*
X477943Y275858D01*
X478020Y276085D01*
X478091Y276313D01*
X478157Y276544D01*
X478217Y276775D01*
X478272Y277008D01*
X478320Y277243D01*
X478364Y277478D01*
X478401Y277715D01*
X478433Y277952D01*
X478459Y278190D01*
X478479Y278428D01*
X478493Y278667D01*
X478502Y278907D01*
X478505Y279146D01*
X478505Y298958D01*
X478502Y299197D01*
X478493Y299437D01*
X478479Y299676D01*
X478459Y299914D01*
X478433Y300152D01*
X478401Y300389D01*
X478364Y300626D01*
X478320Y300861D01*
X478272Y301096D01*
X478217Y301329D01*
X478157Y301560D01*
X478091Y301791D01*
X478020Y302019D01*
X477943Y302246D01*
X477861Y302471D01*
X477774Y302694D01*
X477681Y302914D01*
X477582Y303132D01*
X477479Y303348D01*
X477370Y303562D01*
X477257Y303772D01*
X477138Y303980D01*
X477014Y304185D01*
X476885Y304387D01*
X476751Y304585D01*
X476613Y304781D01*
X476470Y304973D01*
X476322Y305161D01*
X476170Y305346D01*
X476014Y305527D01*
X475853Y305704D01*
X475688Y305877D01*
X475518Y306047D01*
X475345Y306212D01*
X475168Y306373D01*
X474987Y306529D01*
X474802Y306681D01*
X474614Y306829D01*
X474422Y306972D01*
X474226Y307110D01*
X474028Y307244D01*
X473826Y307373D01*
X473621Y307497D01*
X473413Y307616D01*
X473203Y307729D01*
X472989Y307838D01*
X472773Y307941D01*
X472555Y308040D01*
X472335Y308133D01*
X472112Y308220D01*
X471887Y308302D01*
X471660Y308379D01*
X471432Y308450D01*
X471201Y308516D01*
X470970Y308576D01*
X470737Y308631D01*
X470502Y308679D01*
X470267Y308723D01*
X470030Y308760D01*
X469793Y308792D01*
X469555Y308818D01*
X469317Y308838D01*
X469078Y308852D01*
X468838Y308861D01*
X468599Y308864D01*
X452089Y308864D01*
X412572Y328676D02*
X392760Y269240D01*
X372948Y328676D01*
X360883Y315468D02*
X344373Y328676D01*
X344373Y269240D01*
X360883Y269240D02*
X327863Y269240D01*
X312154Y269240D02*
X312154Y272542D01*
X308852Y272542D01*
X308852Y269240D01*
X312154Y269240D01*
X293142Y298958D02*
X293128Y300127D01*
X293086Y301296D01*
X293016Y302463D01*
X292919Y303628D01*
X292793Y304791D01*
X292640Y305950D01*
X292460Y307105D01*
X292251Y308256D01*
X292016Y309401D01*
X291753Y310541D01*
X291463Y311673D01*
X291146Y312799D01*
X290802Y313916D01*
X290432Y315025D01*
X290035Y316125D01*
X289612Y317216D01*
X289163Y318295D01*
X288689Y319364D01*
X288189Y320421D01*
X288089Y320701D01*
X287982Y320979D01*
X287869Y321253D01*
X287749Y321525D01*
X287623Y321794D01*
X287490Y322060D01*
X287350Y322322D01*
X287204Y322581D01*
X287052Y322836D01*
X286894Y323088D01*
X286730Y323336D01*
X286560Y323579D01*
X286384Y323819D01*
X286202Y324054D01*
X286014Y324284D01*
X285821Y324510D01*
X285623Y324731D01*
X285419Y324947D01*
X285210Y325158D01*
X284996Y325364D01*
X284776Y325565D01*
X284553Y325761D01*
X284324Y325950D01*
X284091Y326135D01*
X283853Y326313D01*
X283612Y326486D01*
X283366Y326653D01*
X283116Y326814D01*
X282862Y326968D01*
X282605Y327117D01*
X282344Y327259D01*
X282079Y327394D01*
X281812Y327524D01*
X281541Y327646D01*
X281267Y327762D01*
X280991Y327872D01*
X280712Y327974D01*
X280431Y328070D01*
X280148Y328159D01*
X279862Y328241D01*
X279574Y328316D01*
X279285Y328384D01*
X278994Y328445D01*
X278702Y328499D01*
X278409Y328546D01*
X278114Y328586D01*
X277819Y328618D01*
X277523Y328643D01*
X277226Y328662D01*
X276929Y328672D01*
X276632Y328676D01*
X276335Y328672D01*
X276038Y328662D01*
X275741Y328643D01*
X275445Y328618D01*
X275150Y328586D01*
X274855Y328546D01*
X274562Y328499D01*
X274270Y328445D01*
X273979Y328384D01*
X273690Y328316D01*
X273402Y328241D01*
X273116Y328159D01*
X272833Y328070D01*
X272552Y327974D01*
X272273Y327872D01*
X271997Y327762D01*
X271723Y327646D01*
X271452Y327524D01*
X271185Y327394D01*
X270920Y327259D01*
X270659Y327117D01*
X270402Y326968D01*
X270148Y326814D01*
X269898Y326653D01*
X269652Y326486D01*
X269411Y326313D01*
X269173Y326135D01*
X268940Y325950D01*
X268711Y325761D01*
X268488Y325565D01*
X268268Y325364D01*
X268054Y325158D01*
X267845Y324947D01*
X267641Y324731D01*
X267443Y324510D01*
X267250Y324284D01*
X267062Y324054D01*
X266880Y323819D01*
X266704Y323579D01*
X266534Y323336D01*
X266370Y323088D01*
X266212Y322836D01*
X266060Y322581D01*
X265914Y322322D01*
X265774Y322060D01*
X265641Y321794D01*
X265515Y321525D01*
X265395Y321253D01*
X265282Y320979D01*
X265175Y320701D01*
X265075Y320421D01*
X265074Y320421D02*
X264574Y319364D01*
X264100Y318295D01*
X263651Y317216D01*
X263228Y316125D01*
X262831Y315025D01*
X262461Y313916D01*
X262117Y312799D01*
X261800Y311673D01*
X261510Y310541D01*
X261247Y309401D01*
X261012Y308256D01*
X260803Y307105D01*
X260623Y305950D01*
X260470Y304791D01*
X260344Y303628D01*
X260247Y302463D01*
X260177Y301296D01*
X260135Y300127D01*
X260121Y298958D01*
X293142Y298958D02*
X293128Y297789D01*
X293086Y296620D01*
X293016Y295453D01*
X292919Y294288D01*
X292793Y293125D01*
X292640Y291966D01*
X292460Y290811D01*
X292251Y289660D01*
X292016Y288515D01*
X291753Y287375D01*
X291463Y286243D01*
X291146Y285117D01*
X290802Y284000D01*
X290432Y282891D01*
X290035Y281791D01*
X289612Y280700D01*
X289163Y279621D01*
X288689Y278552D01*
X288189Y277495D01*
X288089Y277215D01*
X287982Y276937D01*
X287869Y276663D01*
X287749Y276391D01*
X287623Y276122D01*
X287490Y275856D01*
X287350Y275594D01*
X287204Y275335D01*
X287052Y275080D01*
X286894Y274828D01*
X286730Y274580D01*
X286560Y274337D01*
X286384Y274097D01*
X286202Y273862D01*
X286014Y273632D01*
X285821Y273406D01*
X285623Y273185D01*
X285419Y272969D01*
X285210Y272758D01*
X284996Y272552D01*
X284776Y272351D01*
X284553Y272155D01*
X284324Y271966D01*
X284091Y271781D01*
X283853Y271603D01*
X283612Y271430D01*
X283366Y271263D01*
X283116Y271102D01*
X282862Y270948D01*
X282605Y270799D01*
X282344Y270657D01*
X282079Y270522D01*
X281812Y270392D01*
X281541Y270270D01*
X281267Y270154D01*
X280991Y270044D01*
X280712Y269942D01*
X280431Y269846D01*
X280148Y269757D01*
X279862Y269675D01*
X279574Y269600D01*
X279285Y269532D01*
X278994Y269471D01*
X278702Y269417D01*
X278409Y269370D01*
X278114Y269330D01*
X277819Y269298D01*
X277523Y269273D01*
X277226Y269254D01*
X276929Y269244D01*
X276632Y269240D01*
X265074Y277495D02*
X264574Y278552D01*
X264100Y279621D01*
X263651Y280700D01*
X263228Y281791D01*
X262831Y282891D01*
X262461Y284000D01*
X262117Y285117D01*
X261800Y286243D01*
X261510Y287375D01*
X261247Y288515D01*
X261012Y289660D01*
X260803Y290811D01*
X260623Y291966D01*
X260470Y293125D01*
X260344Y294288D01*
X260247Y295453D01*
X260177Y296620D01*
X260135Y297789D01*
X260121Y298958D01*
X265075Y277495D02*
X265175Y277215D01*
X265282Y276937D01*
X265395Y276663D01*
X265515Y276391D01*
X265641Y276122D01*
X265774Y275856D01*
X265914Y275594D01*
X266060Y275335D01*
X266212Y275080D01*
X266370Y274828D01*
X266534Y274580D01*
X266704Y274337D01*
X266880Y274097D01*
X267062Y273862D01*
X267250Y273632D01*
X267443Y273406D01*
X267641Y273185D01*
X267845Y272969D01*
X268054Y272758D01*
X268268Y272552D01*
X268488Y272351D01*
X268711Y272155D01*
X268940Y271966D01*
X269173Y271781D01*
X269411Y271603D01*
X269652Y271430D01*
X269898Y271263D01*
X270148Y271102D01*
X270402Y270948D01*
X270659Y270799D01*
X270920Y270657D01*
X271185Y270522D01*
X271452Y270392D01*
X271723Y270270D01*
X271997Y270154D01*
X272273Y270044D01*
X272552Y269942D01*
X272833Y269846D01*
X273116Y269757D01*
X273402Y269675D01*
X273690Y269600D01*
X273979Y269532D01*
X274270Y269471D01*
X274562Y269417D01*
X274855Y269370D01*
X275150Y269330D01*
X275445Y269298D01*
X275741Y269273D01*
X276038Y269254D01*
X276335Y269244D01*
X276632Y269240D01*
X289840Y282448D02*
X263424Y315468D01*
D11*
X541697Y217424D02*
X549487Y217424D01*
X549675Y217426D01*
X549863Y217433D01*
X550051Y217444D01*
X550239Y217460D01*
X550426Y217481D01*
X550612Y217506D01*
X550798Y217535D01*
X550983Y217569D01*
X551168Y217608D01*
X551351Y217650D01*
X551533Y217698D01*
X551714Y217749D01*
X551894Y217805D01*
X552072Y217866D01*
X552249Y217930D01*
X552424Y217999D01*
X552598Y218072D01*
X552769Y218149D01*
X552939Y218231D01*
X553107Y218316D01*
X553272Y218406D01*
X553436Y218499D01*
X553597Y218596D01*
X553755Y218698D01*
X553912Y218803D01*
X554065Y218912D01*
X554216Y219024D01*
X554364Y219140D01*
X554510Y219260D01*
X554652Y219383D01*
X554791Y219509D01*
X554928Y219639D01*
X555061Y219772D01*
X555191Y219909D01*
X555317Y220048D01*
X555440Y220190D01*
X555560Y220336D01*
X555676Y220484D01*
X555788Y220635D01*
X555897Y220788D01*
X556002Y220945D01*
X556104Y221103D01*
X556201Y221264D01*
X556294Y221428D01*
X556384Y221593D01*
X556469Y221761D01*
X556551Y221931D01*
X556628Y222102D01*
X556701Y222276D01*
X556770Y222451D01*
X556834Y222628D01*
X556895Y222806D01*
X556951Y222986D01*
X557002Y223167D01*
X557050Y223349D01*
X557092Y223532D01*
X557131Y223717D01*
X557165Y223902D01*
X557194Y224088D01*
X557219Y224274D01*
X557240Y224461D01*
X557256Y224649D01*
X557267Y224837D01*
X557274Y225025D01*
X557276Y225213D01*
X557276Y244687D01*
X557274Y244875D01*
X557267Y245063D01*
X557256Y245251D01*
X557240Y245439D01*
X557219Y245626D01*
X557194Y245812D01*
X557165Y245998D01*
X557131Y246183D01*
X557092Y246368D01*
X557050Y246551D01*
X557002Y246733D01*
X556951Y246914D01*
X556895Y247094D01*
X556834Y247272D01*
X556770Y247449D01*
X556701Y247624D01*
X556628Y247798D01*
X556551Y247969D01*
X556469Y248139D01*
X556384Y248307D01*
X556294Y248472D01*
X556201Y248636D01*
X556104Y248797D01*
X556002Y248955D01*
X555897Y249112D01*
X555788Y249265D01*
X555676Y249416D01*
X555560Y249564D01*
X555440Y249710D01*
X555317Y249852D01*
X555191Y249991D01*
X555061Y250128D01*
X554928Y250261D01*
X554791Y250391D01*
X554652Y250517D01*
X554510Y250640D01*
X554364Y250760D01*
X554216Y250876D01*
X554065Y250988D01*
X553912Y251097D01*
X553755Y251202D01*
X553597Y251304D01*
X553436Y251401D01*
X553272Y251494D01*
X553107Y251584D01*
X552939Y251669D01*
X552769Y251751D01*
X552598Y251828D01*
X552424Y251901D01*
X552249Y251970D01*
X552072Y252034D01*
X551894Y252095D01*
X551714Y252151D01*
X551533Y252202D01*
X551351Y252250D01*
X551168Y252292D01*
X550983Y252331D01*
X550798Y252365D01*
X550612Y252394D01*
X550426Y252419D01*
X550239Y252440D01*
X550051Y252456D01*
X549863Y252467D01*
X549675Y252474D01*
X549487Y252476D01*
X541697Y252476D01*
X533430Y233003D02*
X533430Y225213D01*
X533429Y233003D02*
X533427Y233193D01*
X533420Y233382D01*
X533408Y233572D01*
X533392Y233761D01*
X533371Y233949D01*
X533346Y234137D01*
X533316Y234324D01*
X533282Y234511D01*
X533243Y234697D01*
X533199Y234881D01*
X533151Y235065D01*
X533099Y235247D01*
X533042Y235428D01*
X532981Y235607D01*
X532915Y235785D01*
X532845Y235962D01*
X532771Y236136D01*
X532693Y236309D01*
X532610Y236480D01*
X532523Y236649D01*
X532432Y236815D01*
X532338Y236979D01*
X532239Y237141D01*
X532136Y237301D01*
X532029Y237458D01*
X531919Y237612D01*
X531805Y237763D01*
X531687Y237912D01*
X531566Y238058D01*
X531441Y238201D01*
X531313Y238340D01*
X531181Y238477D01*
X531046Y238610D01*
X530908Y238740D01*
X530767Y238867D01*
X530622Y238990D01*
X530475Y239110D01*
X530325Y239225D01*
X530172Y239338D01*
X530016Y239446D01*
X529858Y239551D01*
X529698Y239652D01*
X529535Y239748D01*
X529369Y239841D01*
X529201Y239930D01*
X529032Y240015D01*
X528860Y240095D01*
X528686Y240172D01*
X528511Y240244D01*
X528334Y240311D01*
X528155Y240375D01*
X527975Y240434D01*
X527793Y240489D01*
X527610Y240539D01*
X527426Y240584D01*
X527241Y240626D01*
X527055Y240662D01*
X526868Y240695D01*
X526680Y240722D01*
X526492Y240745D01*
X526303Y240764D01*
X526114Y240778D01*
X525924Y240787D01*
X525735Y240791D01*
X525545Y240791D01*
X525356Y240787D01*
X525166Y240778D01*
X524977Y240764D01*
X524788Y240745D01*
X524600Y240722D01*
X524412Y240695D01*
X524225Y240662D01*
X524039Y240626D01*
X523854Y240584D01*
X523670Y240539D01*
X523487Y240489D01*
X523305Y240434D01*
X523125Y240375D01*
X522946Y240311D01*
X522769Y240244D01*
X522594Y240172D01*
X522420Y240095D01*
X522248Y240015D01*
X522079Y239930D01*
X521911Y239841D01*
X521746Y239748D01*
X521582Y239652D01*
X521422Y239551D01*
X521264Y239446D01*
X521108Y239338D01*
X520955Y239225D01*
X520805Y239110D01*
X520658Y238990D01*
X520513Y238867D01*
X520372Y238740D01*
X520234Y238610D01*
X520099Y238477D01*
X519967Y238340D01*
X519839Y238201D01*
X519714Y238058D01*
X519593Y237912D01*
X519475Y237763D01*
X519361Y237612D01*
X519251Y237458D01*
X519144Y237301D01*
X519041Y237141D01*
X518942Y236979D01*
X518848Y236815D01*
X518757Y236649D01*
X518670Y236480D01*
X518587Y236309D01*
X518509Y236136D01*
X518435Y235962D01*
X518365Y235785D01*
X518299Y235607D01*
X518238Y235428D01*
X518181Y235247D01*
X518129Y235065D01*
X518081Y234881D01*
X518037Y234697D01*
X517998Y234511D01*
X517964Y234324D01*
X517934Y234137D01*
X517909Y233949D01*
X517888Y233761D01*
X517872Y233572D01*
X517860Y233382D01*
X517853Y233193D01*
X517851Y233003D01*
X517851Y225213D01*
X517853Y225023D01*
X517860Y224834D01*
X517872Y224644D01*
X517888Y224455D01*
X517909Y224267D01*
X517934Y224079D01*
X517964Y223892D01*
X517998Y223705D01*
X518037Y223519D01*
X518081Y223335D01*
X518129Y223151D01*
X518181Y222969D01*
X518238Y222788D01*
X518299Y222609D01*
X518365Y222431D01*
X518435Y222254D01*
X518509Y222080D01*
X518587Y221907D01*
X518670Y221736D01*
X518757Y221567D01*
X518848Y221401D01*
X518942Y221237D01*
X519041Y221075D01*
X519144Y220915D01*
X519251Y220758D01*
X519361Y220604D01*
X519475Y220453D01*
X519593Y220304D01*
X519714Y220158D01*
X519839Y220015D01*
X519967Y219876D01*
X520099Y219739D01*
X520234Y219606D01*
X520372Y219476D01*
X520513Y219349D01*
X520658Y219226D01*
X520805Y219106D01*
X520955Y218991D01*
X521108Y218878D01*
X521264Y218770D01*
X521422Y218665D01*
X521582Y218564D01*
X521746Y218468D01*
X521911Y218375D01*
X522079Y218286D01*
X522248Y218201D01*
X522420Y218121D01*
X522594Y218044D01*
X522769Y217972D01*
X522946Y217905D01*
X523125Y217841D01*
X523305Y217782D01*
X523487Y217727D01*
X523670Y217677D01*
X523854Y217632D01*
X524039Y217590D01*
X524225Y217554D01*
X524412Y217521D01*
X524600Y217494D01*
X524788Y217471D01*
X524977Y217452D01*
X525166Y217438D01*
X525356Y217429D01*
X525545Y217425D01*
X525735Y217425D01*
X525924Y217429D01*
X526114Y217438D01*
X526303Y217452D01*
X526492Y217471D01*
X526680Y217494D01*
X526868Y217521D01*
X527055Y217554D01*
X527241Y217590D01*
X527426Y217632D01*
X527610Y217677D01*
X527793Y217727D01*
X527975Y217782D01*
X528155Y217841D01*
X528334Y217905D01*
X528511Y217972D01*
X528686Y218044D01*
X528860Y218121D01*
X529032Y218201D01*
X529201Y218286D01*
X529369Y218375D01*
X529535Y218468D01*
X529698Y218564D01*
X529858Y218665D01*
X530016Y218770D01*
X530172Y218878D01*
X530325Y218991D01*
X530475Y219106D01*
X530622Y219226D01*
X530767Y219349D01*
X530908Y219476D01*
X531046Y219606D01*
X531181Y219739D01*
X531313Y219876D01*
X531441Y220015D01*
X531566Y220158D01*
X531687Y220304D01*
X531805Y220453D01*
X531919Y220604D01*
X532029Y220758D01*
X532136Y220915D01*
X532239Y221075D01*
X532338Y221237D01*
X532432Y221401D01*
X532523Y221567D01*
X532610Y221736D01*
X532693Y221907D01*
X532771Y222080D01*
X532845Y222254D01*
X532915Y222431D01*
X532981Y222609D01*
X533042Y222788D01*
X533099Y222969D01*
X533151Y223151D01*
X533199Y223335D01*
X533243Y223519D01*
X533282Y223705D01*
X533316Y223892D01*
X533346Y224079D01*
X533371Y224267D01*
X533392Y224455D01*
X533408Y224644D01*
X533420Y224834D01*
X533427Y225023D01*
X533429Y225213D01*
X507736Y240792D02*
X507736Y205740D01*
X507736Y240792D02*
X498000Y240792D01*
X497850Y240790D01*
X497699Y240784D01*
X497549Y240775D01*
X497399Y240761D01*
X497250Y240744D01*
X497101Y240722D01*
X496953Y240697D01*
X496805Y240668D01*
X496658Y240636D01*
X496512Y240599D01*
X496367Y240559D01*
X496223Y240515D01*
X496081Y240468D01*
X495939Y240416D01*
X495799Y240362D01*
X495661Y240303D01*
X495523Y240241D01*
X495388Y240176D01*
X495254Y240107D01*
X495123Y240034D01*
X494993Y239958D01*
X494865Y239879D01*
X494739Y239797D01*
X494615Y239711D01*
X494494Y239623D01*
X494374Y239531D01*
X494258Y239436D01*
X494143Y239338D01*
X494032Y239237D01*
X493923Y239134D01*
X493816Y239027D01*
X493713Y238918D01*
X493612Y238807D01*
X493514Y238692D01*
X493419Y238576D01*
X493327Y238456D01*
X493239Y238335D01*
X493153Y238211D01*
X493071Y238085D01*
X492992Y237957D01*
X492916Y237827D01*
X492843Y237696D01*
X492774Y237562D01*
X492709Y237427D01*
X492647Y237289D01*
X492588Y237151D01*
X492534Y237011D01*
X492482Y236869D01*
X492435Y236727D01*
X492391Y236583D01*
X492351Y236438D01*
X492314Y236292D01*
X492282Y236145D01*
X492253Y235997D01*
X492228Y235849D01*
X492206Y235700D01*
X492189Y235551D01*
X492175Y235401D01*
X492166Y235251D01*
X492160Y235100D01*
X492158Y234950D01*
X492158Y223266D01*
X492160Y223116D01*
X492166Y222965D01*
X492175Y222815D01*
X492189Y222665D01*
X492206Y222516D01*
X492228Y222367D01*
X492253Y222219D01*
X492282Y222071D01*
X492314Y221924D01*
X492351Y221778D01*
X492391Y221633D01*
X492435Y221489D01*
X492482Y221347D01*
X492534Y221205D01*
X492588Y221065D01*
X492647Y220927D01*
X492709Y220789D01*
X492774Y220654D01*
X492843Y220520D01*
X492916Y220389D01*
X492992Y220259D01*
X493071Y220131D01*
X493153Y220005D01*
X493239Y219881D01*
X493327Y219760D01*
X493419Y219640D01*
X493514Y219524D01*
X493612Y219409D01*
X493713Y219298D01*
X493816Y219189D01*
X493923Y219082D01*
X494032Y218979D01*
X494143Y218878D01*
X494258Y218780D01*
X494374Y218685D01*
X494494Y218593D01*
X494615Y218505D01*
X494739Y218419D01*
X494865Y218337D01*
X494993Y218258D01*
X495123Y218182D01*
X495254Y218109D01*
X495388Y218040D01*
X495523Y217975D01*
X495661Y217913D01*
X495799Y217854D01*
X495939Y217800D01*
X496081Y217748D01*
X496223Y217701D01*
X496367Y217657D01*
X496512Y217617D01*
X496658Y217580D01*
X496805Y217548D01*
X496953Y217519D01*
X497101Y217494D01*
X497250Y217472D01*
X497399Y217455D01*
X497549Y217441D01*
X497699Y217432D01*
X497850Y217426D01*
X498000Y217424D01*
X507736Y217424D01*
X483900Y205740D02*
X480005Y205740D01*
X468321Y240792D01*
X483900Y240792D02*
X476110Y217424D01*
X459169Y217424D02*
X459169Y240792D01*
X447485Y240792D01*
X447485Y236897D01*
X438963Y240792D02*
X438963Y217424D01*
X439937Y250529D02*
X439937Y252476D01*
X437989Y252476D01*
X437989Y250529D01*
X439937Y250529D01*
X422789Y217424D02*
X413052Y217424D01*
X422789Y217424D02*
X422939Y217426D01*
X423090Y217432D01*
X423240Y217441D01*
X423390Y217455D01*
X423539Y217472D01*
X423688Y217494D01*
X423836Y217519D01*
X423984Y217548D01*
X424131Y217580D01*
X424277Y217617D01*
X424422Y217657D01*
X424566Y217701D01*
X424708Y217748D01*
X424850Y217800D01*
X424990Y217854D01*
X425128Y217913D01*
X425266Y217975D01*
X425401Y218040D01*
X425535Y218109D01*
X425666Y218182D01*
X425796Y218258D01*
X425924Y218337D01*
X426050Y218419D01*
X426174Y218505D01*
X426295Y218593D01*
X426415Y218685D01*
X426531Y218780D01*
X426646Y218878D01*
X426757Y218979D01*
X426866Y219082D01*
X426973Y219189D01*
X427076Y219298D01*
X427177Y219409D01*
X427275Y219524D01*
X427370Y219640D01*
X427462Y219760D01*
X427550Y219881D01*
X427636Y220005D01*
X427718Y220131D01*
X427797Y220259D01*
X427873Y220389D01*
X427946Y220520D01*
X428015Y220654D01*
X428080Y220789D01*
X428142Y220927D01*
X428201Y221065D01*
X428255Y221205D01*
X428307Y221347D01*
X428354Y221489D01*
X428398Y221633D01*
X428438Y221778D01*
X428475Y221924D01*
X428507Y222071D01*
X428536Y222219D01*
X428561Y222367D01*
X428583Y222516D01*
X428600Y222665D01*
X428614Y222815D01*
X428623Y222965D01*
X428629Y223116D01*
X428631Y223266D01*
X428631Y234950D01*
X428629Y235100D01*
X428623Y235251D01*
X428614Y235401D01*
X428600Y235551D01*
X428583Y235700D01*
X428561Y235849D01*
X428536Y235997D01*
X428507Y236145D01*
X428475Y236292D01*
X428438Y236438D01*
X428398Y236583D01*
X428354Y236727D01*
X428307Y236869D01*
X428255Y237011D01*
X428201Y237151D01*
X428142Y237289D01*
X428080Y237427D01*
X428015Y237562D01*
X427946Y237696D01*
X427873Y237827D01*
X427797Y237957D01*
X427718Y238085D01*
X427636Y238211D01*
X427550Y238335D01*
X427462Y238456D01*
X427370Y238576D01*
X427275Y238692D01*
X427177Y238807D01*
X427076Y238918D01*
X426973Y239027D01*
X426866Y239134D01*
X426757Y239237D01*
X426646Y239338D01*
X426531Y239436D01*
X426415Y239531D01*
X426295Y239623D01*
X426174Y239711D01*
X426050Y239797D01*
X425924Y239879D01*
X425796Y239958D01*
X425666Y240034D01*
X425535Y240107D01*
X425401Y240176D01*
X425266Y240241D01*
X425128Y240303D01*
X424990Y240362D01*
X424850Y240416D01*
X424708Y240468D01*
X424566Y240515D01*
X424422Y240559D01*
X424277Y240599D01*
X424131Y240636D01*
X423984Y240668D01*
X423836Y240697D01*
X423688Y240722D01*
X423539Y240744D01*
X423390Y240761D01*
X423240Y240775D01*
X423090Y240784D01*
X422939Y240790D01*
X422789Y240792D01*
X413052Y240792D01*
X413052Y211582D01*
X413054Y211432D01*
X413060Y211281D01*
X413069Y211131D01*
X413083Y210981D01*
X413100Y210832D01*
X413122Y210683D01*
X413147Y210535D01*
X413176Y210387D01*
X413208Y210240D01*
X413245Y210094D01*
X413285Y209949D01*
X413329Y209805D01*
X413376Y209663D01*
X413428Y209521D01*
X413482Y209381D01*
X413541Y209243D01*
X413603Y209105D01*
X413668Y208970D01*
X413737Y208836D01*
X413810Y208705D01*
X413886Y208575D01*
X413965Y208447D01*
X414047Y208321D01*
X414133Y208197D01*
X414221Y208076D01*
X414313Y207956D01*
X414408Y207840D01*
X414506Y207725D01*
X414607Y207614D01*
X414710Y207505D01*
X414817Y207398D01*
X414926Y207295D01*
X415037Y207194D01*
X415152Y207096D01*
X415268Y207001D01*
X415388Y206909D01*
X415509Y206821D01*
X415633Y206735D01*
X415759Y206653D01*
X415887Y206574D01*
X416017Y206498D01*
X416148Y206425D01*
X416282Y206356D01*
X416417Y206291D01*
X416555Y206229D01*
X416693Y206170D01*
X416833Y206116D01*
X416975Y206064D01*
X417117Y206017D01*
X417261Y205973D01*
X417406Y205933D01*
X417552Y205896D01*
X417699Y205864D01*
X417847Y205835D01*
X417995Y205810D01*
X418144Y205788D01*
X418293Y205771D01*
X418443Y205757D01*
X418593Y205748D01*
X418744Y205742D01*
X418894Y205740D01*
X426683Y205740D01*
X401985Y217424D02*
X401985Y252476D01*
X401985Y240792D02*
X392248Y240792D01*
X392098Y240790D01*
X391947Y240784D01*
X391797Y240775D01*
X391647Y240761D01*
X391498Y240744D01*
X391349Y240722D01*
X391201Y240697D01*
X391053Y240668D01*
X390906Y240636D01*
X390760Y240599D01*
X390615Y240559D01*
X390471Y240515D01*
X390329Y240468D01*
X390187Y240416D01*
X390047Y240362D01*
X389909Y240303D01*
X389771Y240241D01*
X389636Y240176D01*
X389502Y240107D01*
X389371Y240034D01*
X389241Y239958D01*
X389113Y239879D01*
X388987Y239797D01*
X388863Y239711D01*
X388742Y239623D01*
X388622Y239531D01*
X388506Y239436D01*
X388391Y239338D01*
X388280Y239237D01*
X388171Y239134D01*
X388064Y239027D01*
X387961Y238918D01*
X387860Y238807D01*
X387762Y238692D01*
X387667Y238576D01*
X387575Y238456D01*
X387487Y238335D01*
X387401Y238211D01*
X387319Y238085D01*
X387240Y237957D01*
X387164Y237827D01*
X387091Y237696D01*
X387022Y237562D01*
X386957Y237427D01*
X386895Y237289D01*
X386836Y237151D01*
X386782Y237011D01*
X386730Y236869D01*
X386683Y236727D01*
X386639Y236583D01*
X386599Y236438D01*
X386562Y236292D01*
X386530Y236145D01*
X386501Y235997D01*
X386476Y235849D01*
X386454Y235700D01*
X386437Y235551D01*
X386423Y235401D01*
X386414Y235251D01*
X386408Y235100D01*
X386406Y234950D01*
X386406Y217424D01*
X378088Y240792D02*
X366404Y240792D01*
X374193Y252476D02*
X374193Y223266D01*
X374191Y223116D01*
X374185Y222965D01*
X374176Y222815D01*
X374162Y222665D01*
X374145Y222516D01*
X374123Y222367D01*
X374098Y222219D01*
X374069Y222071D01*
X374037Y221924D01*
X374000Y221778D01*
X373960Y221633D01*
X373916Y221489D01*
X373869Y221347D01*
X373817Y221205D01*
X373763Y221065D01*
X373704Y220927D01*
X373642Y220789D01*
X373577Y220654D01*
X373508Y220520D01*
X373435Y220389D01*
X373359Y220259D01*
X373280Y220131D01*
X373198Y220005D01*
X373112Y219881D01*
X373024Y219760D01*
X372932Y219640D01*
X372837Y219524D01*
X372739Y219409D01*
X372638Y219298D01*
X372535Y219189D01*
X372428Y219082D01*
X372319Y218979D01*
X372208Y218878D01*
X372093Y218780D01*
X371977Y218685D01*
X371857Y218593D01*
X371736Y218505D01*
X371612Y218419D01*
X371486Y218337D01*
X371358Y218258D01*
X371228Y218182D01*
X371097Y218109D01*
X370963Y218040D01*
X370828Y217975D01*
X370690Y217913D01*
X370552Y217854D01*
X370412Y217800D01*
X370270Y217748D01*
X370128Y217701D01*
X369984Y217657D01*
X369839Y217617D01*
X369693Y217580D01*
X369546Y217548D01*
X369398Y217519D01*
X369250Y217494D01*
X369101Y217472D01*
X368952Y217455D01*
X368802Y217441D01*
X368652Y217432D01*
X368501Y217426D01*
X368351Y217424D01*
X366404Y217424D01*
X355249Y231055D02*
X345512Y227161D01*
X355249Y231055D02*
X355380Y231110D01*
X355509Y231168D01*
X355636Y231229D01*
X355762Y231294D01*
X355886Y231363D01*
X356008Y231435D01*
X356127Y231511D01*
X356245Y231590D01*
X356360Y231672D01*
X356473Y231757D01*
X356584Y231845D01*
X356692Y231937D01*
X356797Y232031D01*
X356900Y232129D01*
X357000Y232229D01*
X357097Y232332D01*
X357191Y232438D01*
X357282Y232546D01*
X357370Y232657D01*
X357455Y232770D01*
X357537Y232886D01*
X357615Y233003D01*
X357690Y233123D01*
X357762Y233245D01*
X357830Y233369D01*
X357895Y233495D01*
X357956Y233623D01*
X358014Y233752D01*
X358068Y233883D01*
X358118Y234015D01*
X358165Y234149D01*
X358208Y234284D01*
X358247Y234420D01*
X358282Y234557D01*
X358313Y234695D01*
X358340Y234834D01*
X358364Y234973D01*
X358384Y235114D01*
X358399Y235254D01*
X358411Y235395D01*
X358419Y235537D01*
X358423Y235678D01*
X358422Y235820D01*
X358418Y235961D01*
X358410Y236102D01*
X358398Y236243D01*
X358382Y236384D01*
X358362Y236524D01*
X358338Y236664D01*
X358311Y236802D01*
X358279Y236940D01*
X358243Y237077D01*
X358204Y237213D01*
X358161Y237348D01*
X358114Y237482D01*
X358064Y237614D01*
X358009Y237745D01*
X357951Y237874D01*
X357890Y238001D01*
X357825Y238127D01*
X357756Y238251D01*
X357684Y238373D01*
X357609Y238492D01*
X357530Y238610D01*
X357448Y238725D01*
X357363Y238838D01*
X357274Y238949D01*
X357183Y239057D01*
X357089Y239163D01*
X356991Y239265D01*
X356891Y239365D01*
X356788Y239463D01*
X356683Y239557D01*
X356574Y239648D01*
X356464Y239736D01*
X356351Y239821D01*
X356235Y239903D01*
X356117Y239982D01*
X355998Y240057D01*
X355876Y240129D01*
X355752Y240197D01*
X355626Y240262D01*
X355498Y240323D01*
X355369Y240381D01*
X355238Y240435D01*
X355106Y240486D01*
X354972Y240532D01*
X354838Y240575D01*
X354702Y240614D01*
X354564Y240650D01*
X354426Y240681D01*
X354288Y240709D01*
X354148Y240732D01*
X354008Y240752D01*
X353867Y240768D01*
X353726Y240780D01*
X353585Y240788D01*
X353443Y240792D01*
X353302Y240791D01*
X353301Y240792D02*
X352770Y240778D01*
X352239Y240751D01*
X351708Y240711D01*
X351179Y240659D01*
X350651Y240594D01*
X350125Y240517D01*
X349601Y240426D01*
X349080Y240324D01*
X348561Y240208D01*
X348044Y240080D01*
X347532Y239940D01*
X347022Y239788D01*
X346517Y239623D01*
X346015Y239446D01*
X345518Y239258D01*
X345026Y239057D01*
X344538Y238844D01*
X345512Y227161D02*
X345381Y227106D01*
X345252Y227048D01*
X345125Y226987D01*
X344999Y226922D01*
X344875Y226853D01*
X344754Y226781D01*
X344634Y226705D01*
X344516Y226626D01*
X344401Y226544D01*
X344288Y226459D01*
X344177Y226371D01*
X344069Y226279D01*
X343964Y226185D01*
X343861Y226087D01*
X343761Y225987D01*
X343664Y225884D01*
X343570Y225778D01*
X343479Y225670D01*
X343391Y225559D01*
X343306Y225446D01*
X343224Y225330D01*
X343146Y225213D01*
X343071Y225093D01*
X342999Y224971D01*
X342931Y224847D01*
X342866Y224721D01*
X342805Y224593D01*
X342747Y224464D01*
X342693Y224333D01*
X342643Y224201D01*
X342596Y224067D01*
X342553Y223932D01*
X342514Y223796D01*
X342479Y223659D01*
X342448Y223521D01*
X342421Y223382D01*
X342397Y223243D01*
X342377Y223102D01*
X342362Y222962D01*
X342350Y222821D01*
X342342Y222679D01*
X342338Y222538D01*
X342339Y222396D01*
X342343Y222255D01*
X342351Y222114D01*
X342363Y221973D01*
X342379Y221832D01*
X342399Y221692D01*
X342423Y221552D01*
X342450Y221414D01*
X342482Y221276D01*
X342518Y221139D01*
X342557Y221003D01*
X342600Y220868D01*
X342647Y220734D01*
X342697Y220602D01*
X342752Y220471D01*
X342810Y220342D01*
X342871Y220215D01*
X342936Y220089D01*
X343005Y219965D01*
X343077Y219843D01*
X343152Y219724D01*
X343231Y219606D01*
X343313Y219491D01*
X343398Y219378D01*
X343487Y219267D01*
X343578Y219159D01*
X343672Y219053D01*
X343770Y218951D01*
X343870Y218851D01*
X343973Y218753D01*
X344078Y218659D01*
X344186Y218568D01*
X344297Y218480D01*
X344410Y218395D01*
X344526Y218313D01*
X344644Y218234D01*
X344763Y218159D01*
X344885Y218087D01*
X345009Y218019D01*
X345135Y217954D01*
X345263Y217893D01*
X345392Y217835D01*
X345523Y217781D01*
X345655Y217730D01*
X345789Y217684D01*
X345923Y217641D01*
X346059Y217602D01*
X346197Y217566D01*
X346335Y217535D01*
X346473Y217507D01*
X346613Y217484D01*
X346753Y217464D01*
X346894Y217448D01*
X347035Y217436D01*
X347176Y217428D01*
X347318Y217424D01*
X347459Y217425D01*
X347460Y217424D02*
X348240Y217445D01*
X349021Y217484D01*
X349800Y217541D01*
X350577Y217617D01*
X351352Y217711D01*
X352125Y217823D01*
X352895Y217954D01*
X353662Y218102D01*
X354425Y218269D01*
X355184Y218454D01*
X355939Y218657D01*
X356688Y218878D01*
X357432Y219116D01*
X358170Y219372D01*
X307497Y252476D02*
X307285Y252473D01*
X307074Y252466D01*
X306862Y252453D01*
X306651Y252435D01*
X306441Y252412D01*
X306231Y252384D01*
X306022Y252351D01*
X305813Y252313D01*
X305606Y252270D01*
X305400Y252221D01*
X305195Y252168D01*
X304991Y252110D01*
X304789Y252047D01*
X304588Y251979D01*
X304390Y251907D01*
X304193Y251829D01*
X303997Y251747D01*
X303804Y251660D01*
X303613Y251568D01*
X303425Y251472D01*
X303238Y251372D01*
X303055Y251266D01*
X302873Y251157D01*
X302695Y251043D01*
X302519Y250925D01*
X302346Y250802D01*
X302176Y250676D01*
X302010Y250545D01*
X301846Y250411D01*
X301686Y250272D01*
X301529Y250130D01*
X301376Y249984D01*
X301226Y249834D01*
X301080Y249681D01*
X300938Y249524D01*
X300799Y249364D01*
X300665Y249200D01*
X300534Y249034D01*
X300408Y248864D01*
X300285Y248691D01*
X300167Y248515D01*
X300053Y248337D01*
X299944Y248155D01*
X299838Y247972D01*
X299738Y247785D01*
X299642Y247597D01*
X299550Y247406D01*
X299463Y247213D01*
X299381Y247017D01*
X299303Y246820D01*
X299231Y246622D01*
X299163Y246421D01*
X299100Y246219D01*
X299042Y246015D01*
X298989Y245810D01*
X298940Y245604D01*
X298897Y245397D01*
X298859Y245188D01*
X298826Y244979D01*
X298798Y244769D01*
X298775Y244559D01*
X298757Y244348D01*
X298744Y244136D01*
X298737Y243925D01*
X298734Y243713D01*
X307497Y252476D02*
X307769Y252473D01*
X308041Y252463D01*
X308313Y252446D01*
X308584Y252423D01*
X308855Y252394D01*
X309125Y252358D01*
X309394Y252315D01*
X309662Y252266D01*
X309928Y252210D01*
X310193Y252148D01*
X310457Y252080D01*
X310719Y252005D01*
X310978Y251924D01*
X311236Y251837D01*
X311492Y251743D01*
X311745Y251644D01*
X311996Y251538D01*
X312245Y251426D01*
X312490Y251308D01*
X312733Y251185D01*
X312972Y251055D01*
X313208Y250920D01*
X313441Y250779D01*
X313671Y250632D01*
X313897Y250480D01*
X314119Y250323D01*
X314337Y250160D01*
X314551Y249992D01*
X314761Y249819D01*
X314967Y249641D01*
X315169Y249458D01*
X315366Y249270D01*
X315558Y249077D01*
X315746Y248880D01*
X315929Y248678D01*
X316106Y248472D01*
X316279Y248262D01*
X316447Y248047D01*
X316610Y247829D01*
X316767Y247606D01*
X316919Y247380D01*
X317065Y247151D01*
X317206Y246918D01*
X317341Y246681D01*
X317470Y246442D01*
X317593Y246199D01*
X317711Y245953D01*
X317822Y245705D01*
X317928Y245454D01*
X318027Y245200D01*
X318120Y244945D01*
X318207Y244687D01*
X301655Y236897D02*
X301490Y237059D01*
X301328Y237224D01*
X301171Y237393D01*
X301018Y237566D01*
X300870Y237743D01*
X300725Y237923D01*
X300586Y238107D01*
X300450Y238294D01*
X300320Y238485D01*
X300194Y238678D01*
X300073Y238875D01*
X299956Y239075D01*
X299845Y239277D01*
X299739Y239482D01*
X299637Y239690D01*
X299541Y239900D01*
X299450Y240112D01*
X299364Y240326D01*
X299284Y240543D01*
X299209Y240761D01*
X299139Y240981D01*
X299075Y241203D01*
X299016Y241427D01*
X298963Y241651D01*
X298915Y241877D01*
X298873Y242104D01*
X298836Y242332D01*
X298805Y242561D01*
X298779Y242791D01*
X298759Y243021D01*
X298745Y243251D01*
X298737Y243482D01*
X298734Y243713D01*
X301655Y236897D02*
X318207Y217424D01*
X298734Y217424D01*
X289632Y234950D02*
X289624Y235640D01*
X289599Y236329D01*
X289558Y237017D01*
X289500Y237704D01*
X289426Y238390D01*
X289336Y239073D01*
X289230Y239755D01*
X289107Y240433D01*
X288968Y241109D01*
X288813Y241781D01*
X288642Y242449D01*
X288455Y243112D01*
X288252Y243771D01*
X288034Y244426D01*
X287800Y245074D01*
X287550Y245717D01*
X287286Y246354D01*
X287006Y246984D01*
X286711Y247608D01*
X286712Y247608D02*
X286653Y247773D01*
X286590Y247936D01*
X286523Y248098D01*
X286452Y248259D01*
X286378Y248417D01*
X286299Y248574D01*
X286217Y248729D01*
X286131Y248881D01*
X286041Y249032D01*
X285948Y249180D01*
X285851Y249326D01*
X285751Y249470D01*
X285647Y249611D01*
X285540Y249750D01*
X285429Y249886D01*
X285315Y250019D01*
X285198Y250149D01*
X285078Y250277D01*
X284955Y250401D01*
X284828Y250523D01*
X284699Y250641D01*
X284567Y250757D01*
X284432Y250869D01*
X284295Y250977D01*
X284155Y251083D01*
X284012Y251184D01*
X283867Y251283D01*
X283720Y251378D01*
X283570Y251469D01*
X283418Y251556D01*
X283264Y251640D01*
X283109Y251720D01*
X282951Y251796D01*
X282791Y251869D01*
X282630Y251937D01*
X282467Y252002D01*
X282302Y252062D01*
X282136Y252119D01*
X281969Y252171D01*
X281801Y252220D01*
X281631Y252264D01*
X281461Y252304D01*
X281289Y252340D01*
X281117Y252372D01*
X280944Y252399D01*
X280770Y252423D01*
X280596Y252442D01*
X280421Y252457D01*
X280246Y252467D01*
X280071Y252474D01*
X279896Y252476D01*
X279721Y252474D01*
X279546Y252467D01*
X279371Y252457D01*
X279196Y252442D01*
X279022Y252423D01*
X278848Y252399D01*
X278675Y252372D01*
X278503Y252340D01*
X278331Y252304D01*
X278161Y252264D01*
X277991Y252220D01*
X277823Y252171D01*
X277656Y252119D01*
X277490Y252062D01*
X277325Y252002D01*
X277162Y251937D01*
X277001Y251869D01*
X276841Y251796D01*
X276684Y251720D01*
X276528Y251640D01*
X276374Y251556D01*
X276222Y251469D01*
X276072Y251378D01*
X275925Y251283D01*
X275780Y251184D01*
X275637Y251083D01*
X275497Y250977D01*
X275360Y250869D01*
X275225Y250757D01*
X275093Y250641D01*
X274964Y250523D01*
X274837Y250401D01*
X274714Y250277D01*
X274594Y250149D01*
X274477Y250019D01*
X274363Y249886D01*
X274252Y249750D01*
X274145Y249611D01*
X274041Y249470D01*
X273941Y249326D01*
X273844Y249180D01*
X273751Y249032D01*
X273661Y248882D01*
X273575Y248729D01*
X273493Y248574D01*
X273414Y248417D01*
X273340Y248259D01*
X273269Y248098D01*
X273202Y247936D01*
X273139Y247773D01*
X273080Y247608D01*
X272785Y246984D01*
X272505Y246354D01*
X272241Y245717D01*
X271991Y245074D01*
X271757Y244426D01*
X271539Y243771D01*
X271336Y243112D01*
X271149Y242449D01*
X270978Y241781D01*
X270823Y241109D01*
X270684Y240433D01*
X270561Y239755D01*
X270455Y239073D01*
X270365Y238390D01*
X270291Y237704D01*
X270233Y237017D01*
X270192Y236329D01*
X270167Y235640D01*
X270159Y234950D01*
X289633Y234950D02*
X289625Y234260D01*
X289600Y233571D01*
X289559Y232883D01*
X289501Y232196D01*
X289427Y231510D01*
X289337Y230826D01*
X289231Y230145D01*
X289108Y229467D01*
X288969Y228791D01*
X288814Y228119D01*
X288643Y227451D01*
X288456Y226787D01*
X288253Y226128D01*
X288035Y225474D01*
X287801Y224826D01*
X287551Y224183D01*
X287287Y223546D01*
X287007Y222916D01*
X286712Y222292D01*
X286653Y222127D01*
X286590Y221964D01*
X286523Y221802D01*
X286452Y221641D01*
X286378Y221483D01*
X286299Y221326D01*
X286217Y221171D01*
X286131Y221018D01*
X286041Y220868D01*
X285948Y220720D01*
X285851Y220574D01*
X285751Y220430D01*
X285647Y220289D01*
X285540Y220150D01*
X285429Y220014D01*
X285315Y219881D01*
X285198Y219751D01*
X285078Y219623D01*
X284955Y219499D01*
X284828Y219377D01*
X284699Y219259D01*
X284567Y219143D01*
X284432Y219031D01*
X284295Y218923D01*
X284155Y218817D01*
X284012Y218716D01*
X283867Y218617D01*
X283720Y218522D01*
X283570Y218431D01*
X283418Y218344D01*
X283264Y218260D01*
X283109Y218180D01*
X282951Y218104D01*
X282791Y218031D01*
X282630Y217963D01*
X282467Y217898D01*
X282302Y217838D01*
X282136Y217781D01*
X281969Y217729D01*
X281801Y217680D01*
X281631Y217636D01*
X281461Y217596D01*
X281289Y217560D01*
X281117Y217528D01*
X280944Y217501D01*
X280770Y217477D01*
X280596Y217458D01*
X280421Y217443D01*
X280246Y217433D01*
X280071Y217426D01*
X279896Y217424D01*
X273079Y222292D02*
X272784Y222916D01*
X272504Y223546D01*
X272240Y224183D01*
X271990Y224826D01*
X271756Y225474D01*
X271538Y226128D01*
X271335Y226787D01*
X271148Y227451D01*
X270977Y228119D01*
X270822Y228791D01*
X270683Y229467D01*
X270560Y230145D01*
X270454Y230826D01*
X270364Y231510D01*
X270290Y232196D01*
X270232Y232883D01*
X270191Y233571D01*
X270166Y234260D01*
X270158Y234950D01*
X273080Y222292D02*
X273139Y222127D01*
X273202Y221964D01*
X273269Y221802D01*
X273340Y221641D01*
X273414Y221483D01*
X273493Y221326D01*
X273575Y221171D01*
X273661Y221018D01*
X273751Y220868D01*
X273844Y220720D01*
X273941Y220573D01*
X274041Y220430D01*
X274145Y220289D01*
X274252Y220150D01*
X274363Y220014D01*
X274477Y219881D01*
X274594Y219751D01*
X274714Y219623D01*
X274837Y219499D01*
X274964Y219377D01*
X275093Y219259D01*
X275225Y219143D01*
X275360Y219031D01*
X275497Y218923D01*
X275637Y218817D01*
X275780Y218716D01*
X275925Y218617D01*
X276072Y218522D01*
X276222Y218431D01*
X276374Y218344D01*
X276528Y218260D01*
X276684Y218180D01*
X276841Y218104D01*
X277001Y218031D01*
X277162Y217963D01*
X277325Y217898D01*
X277490Y217838D01*
X277656Y217781D01*
X277823Y217729D01*
X277991Y217680D01*
X278161Y217636D01*
X278331Y217596D01*
X278503Y217560D01*
X278675Y217528D01*
X278848Y217501D01*
X279022Y217477D01*
X279196Y217458D01*
X279371Y217443D01*
X279546Y217433D01*
X279721Y217426D01*
X279896Y217424D01*
X287685Y225213D02*
X272106Y244687D01*
X250347Y252476D02*
X250135Y252473D01*
X249924Y252466D01*
X249712Y252453D01*
X249501Y252435D01*
X249291Y252412D01*
X249081Y252384D01*
X248872Y252351D01*
X248663Y252313D01*
X248456Y252270D01*
X248250Y252221D01*
X248045Y252168D01*
X247841Y252110D01*
X247639Y252047D01*
X247438Y251979D01*
X247240Y251907D01*
X247043Y251829D01*
X246847Y251747D01*
X246654Y251660D01*
X246463Y251568D01*
X246275Y251472D01*
X246088Y251372D01*
X245905Y251266D01*
X245723Y251157D01*
X245545Y251043D01*
X245369Y250925D01*
X245196Y250802D01*
X245026Y250676D01*
X244860Y250545D01*
X244696Y250411D01*
X244536Y250272D01*
X244379Y250130D01*
X244226Y249984D01*
X244076Y249834D01*
X243930Y249681D01*
X243788Y249524D01*
X243649Y249364D01*
X243515Y249200D01*
X243384Y249034D01*
X243258Y248864D01*
X243135Y248691D01*
X243017Y248515D01*
X242903Y248337D01*
X242794Y248155D01*
X242688Y247972D01*
X242588Y247785D01*
X242492Y247597D01*
X242400Y247406D01*
X242313Y247213D01*
X242231Y247017D01*
X242153Y246820D01*
X242081Y246622D01*
X242013Y246421D01*
X241950Y246219D01*
X241892Y246015D01*
X241839Y245810D01*
X241790Y245604D01*
X241747Y245397D01*
X241709Y245188D01*
X241676Y244979D01*
X241648Y244769D01*
X241625Y244559D01*
X241607Y244348D01*
X241594Y244136D01*
X241587Y243925D01*
X241584Y243713D01*
X250347Y252476D02*
X250619Y252473D01*
X250891Y252463D01*
X251163Y252446D01*
X251434Y252423D01*
X251705Y252394D01*
X251975Y252358D01*
X252244Y252315D01*
X252512Y252266D01*
X252778Y252210D01*
X253043Y252148D01*
X253307Y252080D01*
X253569Y252005D01*
X253828Y251924D01*
X254086Y251837D01*
X254342Y251743D01*
X254595Y251644D01*
X254846Y251538D01*
X255095Y251426D01*
X255340Y251308D01*
X255583Y251185D01*
X255822Y251055D01*
X256058Y250920D01*
X256291Y250779D01*
X256521Y250632D01*
X256747Y250480D01*
X256969Y250323D01*
X257187Y250160D01*
X257401Y249992D01*
X257611Y249819D01*
X257817Y249641D01*
X258019Y249458D01*
X258216Y249270D01*
X258408Y249077D01*
X258596Y248880D01*
X258779Y248678D01*
X258956Y248472D01*
X259129Y248262D01*
X259297Y248047D01*
X259460Y247829D01*
X259617Y247606D01*
X259769Y247380D01*
X259915Y247151D01*
X260056Y246918D01*
X260191Y246681D01*
X260320Y246442D01*
X260443Y246199D01*
X260561Y245953D01*
X260672Y245705D01*
X260778Y245454D01*
X260877Y245200D01*
X260970Y244945D01*
X261057Y244687D01*
X244505Y236897D02*
X244340Y237059D01*
X244178Y237224D01*
X244021Y237393D01*
X243868Y237566D01*
X243720Y237743D01*
X243575Y237923D01*
X243436Y238107D01*
X243300Y238294D01*
X243170Y238485D01*
X243044Y238678D01*
X242923Y238875D01*
X242806Y239075D01*
X242695Y239277D01*
X242589Y239482D01*
X242487Y239690D01*
X242391Y239900D01*
X242300Y240112D01*
X242214Y240326D01*
X242134Y240543D01*
X242059Y240761D01*
X241989Y240981D01*
X241925Y241203D01*
X241866Y241427D01*
X241813Y241651D01*
X241765Y241877D01*
X241723Y242104D01*
X241686Y242332D01*
X241655Y242561D01*
X241629Y242791D01*
X241609Y243021D01*
X241595Y243251D01*
X241587Y243482D01*
X241584Y243713D01*
X244505Y236897D02*
X261057Y217424D01*
X241584Y217424D01*
X232482Y244687D02*
X222746Y252476D01*
X222746Y217424D01*
X232482Y217424D02*
X213009Y217424D01*
M02*
