G04 EAGLE Gerber RS-274X export*
G75*
%MOMM*%
%FSLAX34Y34*%
%LPD*%
%INSoldermask Top*%
%IPPOS*%
%AMOC8*
5,1,8,0,0,1.08239X$1,22.5*%
G01*
%ADD10P,1.951982X8X22.500000*%
%ADD11R,2.603200X2.203200*%
%ADD12R,2.511200X0.703200*%
%ADD13C,1.203200*%
%ADD14R,0.403200X1.203200*%
%ADD15R,1.203200X0.403200*%
%ADD16P,2.034460X8X202.500000*%
%ADD17C,1.219200*%
%ADD18C,1.981200*%
%ADD19C,2.387600*%
%ADD20R,3.759200X2.387600*%
%ADD21R,2.489200X2.387600*%
%ADD22P,2.034460X8X112.500000*%
%ADD23R,1.600000X1.400000*%
%ADD24P,2.034460X8X292.500000*%
%ADD25C,1.625600*%
%ADD26C,2.743200*%
%ADD27C,0.959600*%


D10*
X177800Y406400D03*
X203200Y406400D03*
X101600Y355600D03*
X127000Y355600D03*
X101600Y444500D03*
X127000Y444500D03*
X330200Y406400D03*
X355600Y406400D03*
X393700Y660400D03*
X419100Y660400D03*
X254000Y355600D03*
X279400Y355600D03*
X419100Y317500D03*
X444500Y317500D03*
X266700Y660400D03*
X292100Y660400D03*
X177800Y660400D03*
X203200Y660400D03*
D11*
X314400Y247200D03*
D12*
X320040Y219200D03*
X320040Y211200D03*
X320040Y203200D03*
X320040Y195200D03*
X320040Y187200D03*
D11*
X259400Y247200D03*
X314400Y159200D03*
X259400Y159200D03*
D13*
X289400Y225200D03*
X289400Y181200D03*
D14*
X620200Y336000D03*
X625200Y336000D03*
X630200Y336000D03*
X635200Y336000D03*
X640200Y336000D03*
X645200Y336000D03*
X650200Y336000D03*
X655200Y336000D03*
X660200Y336000D03*
X665200Y336000D03*
X670200Y336000D03*
X675200Y336000D03*
D15*
X692700Y353500D03*
X692700Y358500D03*
X692700Y363500D03*
X692700Y368500D03*
X692700Y373500D03*
X692700Y378500D03*
X692700Y383500D03*
X692700Y388500D03*
X692700Y393500D03*
X692700Y398500D03*
X692700Y403500D03*
X692700Y408500D03*
D14*
X675200Y426000D03*
X670200Y426000D03*
X665200Y426000D03*
X660200Y426000D03*
X655200Y426000D03*
X650200Y426000D03*
X645200Y426000D03*
X640200Y426000D03*
X635200Y426000D03*
X630200Y426000D03*
X625200Y426000D03*
X620200Y426000D03*
D15*
X602700Y408500D03*
X602700Y403500D03*
X602700Y398500D03*
X602700Y393500D03*
X602700Y388500D03*
X602700Y383500D03*
X602700Y378500D03*
X602700Y373500D03*
X602700Y368500D03*
X602700Y363500D03*
X602700Y358500D03*
X602700Y353500D03*
D16*
X212090Y190500D03*
X190500Y190500D03*
X168910Y190500D03*
D17*
X431800Y742950D03*
X444500Y742950D03*
X457200Y742950D03*
X469900Y742950D03*
X419100Y742950D03*
X431800Y755650D03*
X444500Y755650D03*
X457200Y755650D03*
X469900Y755650D03*
X419100Y755650D03*
D18*
X609600Y774700D03*
X635000Y774700D03*
X660400Y774700D03*
X685800Y774700D03*
X711200Y774700D03*
X736600Y774700D03*
X762000Y774700D03*
X787400Y774700D03*
X812800Y774700D03*
X838200Y774700D03*
X863600Y774700D03*
X889000Y774700D03*
X914400Y774700D03*
X939800Y774700D03*
X965200Y774700D03*
D19*
X833400Y38100D03*
X868400Y38100D03*
X903400Y38100D03*
X938400Y38100D03*
X973400Y38100D03*
X798400Y38100D03*
X763400Y38100D03*
X728400Y38100D03*
X952500Y423900D03*
X952500Y388900D03*
X952500Y353900D03*
X952500Y318900D03*
X952500Y283900D03*
X952500Y458900D03*
X952500Y493900D03*
X952500Y528900D03*
D20*
X33020Y73660D03*
X33020Y27940D03*
D21*
X127000Y73660D03*
X127000Y27940D03*
D22*
X101600Y558800D03*
X101600Y660400D03*
D23*
X101600Y599346D03*
X101600Y619854D03*
D24*
X571500Y228600D03*
X571500Y127000D03*
D23*
X571500Y188054D03*
X571500Y167546D03*
D25*
X635000Y76200D03*
D26*
X683000Y76200D03*
X587000Y76200D03*
D25*
X615000Y76200D03*
X654000Y76200D03*
D26*
X311900Y749300D03*
X246900Y749300D03*
D27*
X584200Y317500D03*
X584200Y241300D03*
X558800Y317500D03*
X508000Y317500D03*
X495300Y355600D03*
X469900Y368300D03*
X469900Y330200D03*
X444500Y330200D03*
X635000Y355600D03*
X635000Y381000D03*
X673100Y381000D03*
X660576Y152400D03*
X381000Y368300D03*
X401750Y350950D03*
X431800Y381000D03*
X431800Y406400D03*
X581798Y340498D03*
X609600Y336776D03*
X469900Y241300D03*
X533400Y254000D03*
X304800Y469900D03*
X355600Y469900D03*
X546100Y266700D03*
X571500Y330200D03*
X546100Y101600D03*
X622300Y457200D03*
X558800Y457200D03*
X546100Y508000D03*
X546100Y558800D03*
X533400Y609600D03*
X533400Y647700D03*
X584200Y406400D03*
X457200Y482600D03*
X584200Y419100D03*
X368300Y203200D03*
X393700Y203200D03*
X482600Y444500D03*
X482600Y469900D03*
X558800Y520700D03*
X584200Y520700D03*
X355600Y212624D03*
X355600Y228600D03*
X381000Y355600D03*
X406400Y381000D03*
X406400Y495300D03*
X431800Y546100D03*
X558800Y546100D03*
X584200Y546100D03*
X838200Y381000D03*
X863600Y419100D03*
X635000Y596900D03*
X635000Y622300D03*
X838200Y431800D03*
X647700Y584200D03*
X647700Y622300D03*
X520700Y508000D03*
X685800Y469900D03*
X508000Y444500D03*
X508000Y381000D03*
X558800Y381000D03*
X571500Y366924D03*
X533400Y368300D03*
X533400Y444500D03*
X762000Y444500D03*
X800100Y482600D03*
X800100Y533400D03*
X876300Y622300D03*
X838200Y660400D03*
X571500Y355600D03*
X457200Y558800D03*
X558800Y622300D03*
X584200Y698500D03*
X723900Y698500D03*
X825500Y431800D03*
X825500Y495300D03*
X914400Y495300D03*
X914400Y622300D03*
X889000Y622300D03*
X812800Y431800D03*
X812800Y508000D03*
X927100Y508000D03*
X927100Y622300D03*
X927100Y673100D03*
X647700Y355600D03*
X609600Y482600D03*
X508000Y685800D03*
X584200Y495300D03*
X431800Y774700D03*
X482600Y774700D03*
X546100Y711200D03*
X584200Y711200D03*
X723900Y711200D03*
X850900Y711200D03*
X901700Y685800D03*
X914400Y660400D03*
X914400Y635000D03*
X419100Y762000D03*
X546100Y762000D03*
X546100Y736600D03*
X584200Y736600D03*
X723900Y736600D03*
X863600Y736600D03*
X952500Y723900D03*
X952500Y698500D03*
X952500Y660400D03*
X660400Y508000D03*
X787400Y457200D03*
X650200Y396200D03*
X825500Y393700D03*
X647700Y495300D03*
X787400Y444500D03*
X596900Y317500D03*
X596900Y253548D03*
X635000Y253548D03*
X620924Y317500D03*
M02*
