M48
;GenerationSoftware,Autodesk,EAGLE,9.6.2*%
;CreationDate,2021-05-07T21:50:47Z*%
FMAT,2
ICI,OFF
METRIC,TZ,000.000
T8C0.350
T7C0.508
T6C0.700
T5C0.813
T4C1.000
T3C1.016
T2C1.300
T1C1.400
%
G90
M71
T1
X58700Y7620
X68300Y7620
T2
X31190Y74930
X24690Y74930
T3
X96520Y77470
X76200Y77470
X73660Y77470
X71120Y77470
X60960Y77470
X63500Y77470
X91440Y77470
X66040Y77470
X88900Y77470
X86360Y77470
X83820Y77470
X81280Y77470
X68580Y77470
X93980Y77470
X78740Y77470
T4
X93840Y3810
X86840Y3810
X90340Y3810
X97340Y3810
X79840Y3810
X76340Y3810
X72840Y3810
X95250Y42390
X95250Y38890
X95250Y35390
X95250Y31890
X95250Y28390
X95250Y45890
X95250Y49390
X95250Y52890
X28940Y18120
X28940Y22520
X83340Y3810
T5
X33020Y40640
X20320Y40640
X17780Y40640
X10160Y35560
X12700Y35560
X10160Y44450
X12700Y44450
X35560Y40640
X39370Y66040
X41910Y66040
X25400Y35560
X27940Y35560
X41910Y31750
X44450Y31750
X26670Y66040
X29210Y66040
X17780Y66040
X20320Y66040
X10160Y55880
X10160Y66040
X57150Y22860
X57150Y12700
X21209Y19050
X19050Y19050
X16891Y19050
T6
X63500Y7620
X61500Y7620
X65400Y7620
T7
X44450Y74295
X43180Y74295
X41910Y74295
X41910Y75565
X46990Y75565
X45720Y75565
X44450Y75565
X46990Y74295
X45720Y74295
X43180Y75565
T8
X91440Y49530
X91440Y62230
X88900Y62230
X81280Y43180
X81280Y50800
X92710Y50800
X92710Y62230
X92710Y67310
X64770Y35560
X60960Y48260
X50800Y68580
X58420Y49530
X43180Y77470
X48260Y77470
X54610Y71120
X58420Y71120
X72390Y71120
X85090Y71120
X90170Y68580
X91440Y66040
X57150Y33020
X41910Y76200
X54610Y76200
X54610Y73660
X58420Y73660
X72390Y73660
X86360Y73660
X95250Y72390
X95250Y69850
X95250Y66040
X66040Y50800
X78740Y45720
X65020Y39620
X82550Y39370
X64770Y49530
X78740Y44450
X59690Y31750
X59690Y25355
X63500Y25355
X62092Y31750
X58420Y31750
X58420Y24130
X55880Y31750
X91440Y63500
X50800Y31750
X49530Y35560
X46990Y36830
X46990Y33020
X44450Y33020
X63500Y35560
X63500Y38100
X67310Y38100
X66058Y15240
X38100Y36830
X40175Y35095
X43180Y38100
X43180Y40640
X58180Y34050
X60960Y33678
X46990Y24130
X53340Y25400
X30480Y46990
X35560Y46990
X54610Y26670
X54610Y10160
X62230Y45720
X55880Y45720
X54610Y50800
X54610Y55880
X53340Y60960
X53340Y64770
X58420Y40640
X45720Y48260
X58420Y41910
X36830Y20320
X39370Y20320
X48260Y44450
X48260Y46990
X55880Y52070
X58420Y52070
X35560Y21262
X35560Y22860
X38100Y35560
X40640Y38100
X40640Y49530
X43180Y54610
X55880Y54610
X58420Y54610
X83820Y38100
X86360Y41910
X63500Y59690
X72390Y69850
X63500Y62230
X83820Y43180
X64770Y58420
X64770Y62230
X52070Y50800
X68580Y46990
X50800Y44450
X50800Y38100
X55880Y38100
X57150Y36692
X53340Y36830
X53340Y44450
X76200Y44450
X80010Y48260
X80010Y53340
X87630Y62230
X83820Y66040
X57150Y35560
X45720Y55880
X55880Y62230
X58420Y69850
X82550Y43180
X82550Y49530
M30